<?xml version="1.0" encoding="UTF-8"?>
<svg
  width="110px" height="128px" viewBox="-10 -10 120 138"
  version="1.1"
  xmlns="http://www.w3.org/2000/svg"
  xmlns:xlink="http://www.w3.org/1999/xlink">
  <title>FormalTalk</title>
  <g id="FT" stroke="none" stroke-width="1" fill="none" fill-rule="evenodd">
    <path d="M73,0 L73,55 L120,55 L110,73 L73,73
             C73,97 85,112 110,112
             L110,112 L110,128
             C75,128 55,105 55,73
             L55,73 L17,73 L17,128 L0,128 L0,55 L0,55
             C0,25 20,0 55,0
             L73,0
             M55,17
             C31,17 17,31 17,55
             L17,55 L55,55 L55,17"
         id="FT" fill="#483D8B"></path>
  </g>
</svg>
