<?xml version="1.0" encoding="UTF-8"?>
<svg width="212px" height="105px" viewBox="0 0 212 105" version="1.1" xmlns="http://www.w3.org/2000/svg" xmlns:xlink="http://www.w3.org/1999/xlink">
    <title>FT</title>
    <g id="Page-1" stroke="none" stroke-width="1" fill="none" fill-rule="evenodd">
        <g id="FT" transform="translate(0.112000, 0.000000)">
            <rect id="Rectangle" fill="#483D8B" x="106.888" y="0" width="105" height="105" rx="5"></rect>
            <g id="/3" transform="translate(116.184000, 21.256000)" fill="#FFFFFF" fill-rule="nonzero">
                <polygon id="Path" points="26.064 1.296 -5.68434189e-14 69.48 8.856 69.48 34.848 1.296"></polygon>
                <path d="M39.096,45 C40.392,49.176 41.328,51.048 43.128,53.064 C47.232,57.744 52.992,59.904 61.416,59.904 C69.12,59.904 75.168,57.888 79.128,54.072 C81.792,51.408 83.448,47.448 83.448,43.56 C83.448,39.312 82.368,36.288 79.992,33.624 C77.472,30.816 74.808,29.592 69.696,28.8 C73.512,27.792 75.096,27.216 76.68,25.992 C79.776,23.688 81.648,19.728 81.648,15.408 C81.648,6.048 73.872,0 61.848,0 C56.088,0 51.408,1.296 47.736,3.96 C44.352,6.408 42.696,8.928 40.896,14.256 L51.192,15.984 C52.056,13.032 52.776,11.808 54.216,10.44 C55.944,9 58.536,8.208 62.064,8.208 C68.184,8.208 71.568,11.016 71.568,15.984 C71.568,21.528 67.32,24.84 60.12,24.84 C57.024,24.84 55.44,24.768 53.136,24.48 L53.136,33.408 C55.584,33.12 57.672,33.048 60.84,33.048 C64.008,33.048 67.392,33.768 69.12,34.776 C71.712,36.288 73.152,39.024 73.152,42.336 C73.152,48.024 68.616,51.696 61.488,51.696 C58.032,51.696 55.152,50.76 52.776,48.888 C50.976,47.448 50.328,46.296 49.392,42.984 L39.096,45 Z" id="Path"></path>
            </g>
            <g transform="translate(0.000000, 23.048000)" fill="#483D8B" fill-rule="nonzero" id="Path">
                <path d="M10.152,33.048 L25.56,33.048 C29.952,33.048 32.688,33.192 35.352,33.552 L35.352,23.976 C32.544,24.336 30.024,24.48 25.56,24.48 L10.152,24.48 L10.152,9.216 L29.304,9.216 C33.912,9.216 36.576,9.36 39.168,9.72 L39.168,0 C36.144,0.36 33.84,0.504 29.304,0.504 L9.144,0.504 C4.752,0.504 2.952,0.432 0,0.288 C0.432,3.6 0.576,5.688 0.576,9.648 L0.576,47.592 C0.576,52.344 0.432,55.368 0,57.816 L10.728,57.816 C10.296,55.08 10.152,52.56 10.152,47.448 L10.152,33.048 Z"></path>
                <path d="M71.64,9.144 L80.64,9.144 C85.824,9.144 88.56,9.288 91.224,9.648 L91.224,0 C88.488,0.36 85.824,0.504 80.64,0.504 L52.128,0.504 C48.024,0.504 44.928,0.36 42.336,0 L42.336,9.648 C44.856,9.288 47.952,9.144 52.2,9.144 L61.92,9.144 L61.92,48.456 C61.92,52.344 61.776,54.792 61.344,57.816 L72.216,57.816 C71.784,54.864 71.64,52.344 71.64,48.456 L71.64,9.144 Z"></path>
            </g>
        </g>
    </g>
</svg>