<svg width="856" height="586" viewBox="0 0 856 586" fill="none" xmlns="http://www.w3.org/2000/svg">
<rect x="490" y="1" width="365" height="398" stroke="black" stroke-opacity="0.2" stroke-width="2"/>
<rect x="490" y="428" width="365" height="157" stroke="black" stroke-opacity="0.2" stroke-width="2"/>
<rect y="79" width="276" height="52" fill="#C4C4C4"/>
<path d="M30.448 115V99.256H35.2C36.064 99.256 36.856 99.336 37.576 99.496C38.296 99.656 38.912 99.92 39.424 100.288C39.936 100.64 40.328 101.112 40.6 101.704C40.888 102.296 41.032 103.024 41.032 103.888C41.032 104.72 40.888 105.44 40.6 106.048C40.328 106.656 39.928 107.16 39.4 107.56C38.888 107.96 38.272 108.264 37.552 108.472C36.848 108.664 36.064 108.76 35.2 108.76H32.44V115H30.448ZM32.44 107.128H34.96C36.352 107.128 37.376 106.872 38.032 106.36C38.688 105.832 39.016 105.008 39.016 103.888C39.016 102.752 38.68 101.968 38.008 101.536C37.336 101.088 36.32 100.864 34.96 100.864H32.44V107.128ZM50.8146 115.288C49.8386 115.288 48.9346 115.104 48.1026 114.736C47.2706 114.368 46.5426 113.84 45.9186 113.152C45.3106 112.448 44.8306 111.592 44.4786 110.584C44.1266 109.56 43.9506 108.408 43.9506 107.128C43.9506 105.864 44.1266 104.728 44.4786 103.72C44.8306 102.712 45.3186 101.856 45.9426 101.152C46.5666 100.448 47.3106 99.912 48.1746 99.544C49.0386 99.16 49.9826 98.968 51.0066 98.968C51.9506 98.968 52.7826 99.16 53.5026 99.544C54.2386 99.928 54.8386 100.376 55.3026 100.888L54.1746 102.16C53.7586 101.728 53.2946 101.384 52.7826 101.128C52.2706 100.856 51.6786 100.72 51.0066 100.72C50.2546 100.72 49.5666 100.872 48.9426 101.176C48.3346 101.464 47.8146 101.888 47.3826 102.448C46.9506 102.992 46.6146 103.656 46.3746 104.44C46.1346 105.224 46.0146 106.104 46.0146 107.08C46.0146 108.072 46.1346 108.968 46.3746 109.768C46.6146 110.552 46.9506 111.224 47.3826 111.784C47.8146 112.344 48.3346 112.776 48.9426 113.08C49.5666 113.384 50.2546 113.536 51.0066 113.536C51.7266 113.536 52.3666 113.384 52.9266 113.08C53.5026 112.776 54.0466 112.344 54.5586 111.784L55.6866 113.008C55.0626 113.728 54.3586 114.288 53.5746 114.688C52.7906 115.088 51.8706 115.288 50.8146 115.288ZM59.0613 115V113.296H62.9733V100.936H59.0613V99.256H68.9012V100.936H64.9893V113.296H68.9012V115H59.0613ZM73.9079 115V99.256H83.6519V100.936H75.9239V105.88H82.4519V107.584H75.9239V113.296H83.8919V115H73.9079ZM86.8585 115L91.5625 106.864L87.1705 99.256H89.3785L91.5865 103.288C91.7945 103.656 91.9945 104.016 92.1865 104.368C92.3785 104.704 92.6025 105.104 92.8585 105.568H92.9545C93.1785 105.104 93.3705 104.704 93.5305 104.368C93.7065 104.016 93.8905 103.656 94.0825 103.288L96.2425 99.256H98.3545L93.9625 106.96L98.6665 115H96.4585L94.0825 110.752C93.8585 110.368 93.6345 109.976 93.4105 109.576C93.2025 109.16 92.9625 108.712 92.6905 108.232H92.5945C92.3705 108.712 92.1545 109.16 91.9465 109.576C91.7385 109.976 91.5305 110.368 91.3225 110.752L88.9705 115H86.8585ZM102.281 115V113.368H106.697V102.088H103.265V100.816C104.177 100.688 104.937 100.536 105.545 100.36C106.153 100.184 106.705 99.96 107.201 99.688H108.665V113.368H112.673V115H102.281ZM122.048 115.288C121.216 115.288 120.44 115.136 119.72 114.832C119.016 114.528 118.4 114.072 117.872 113.464C117.344 112.84 116.928 112.072 116.624 111.16C116.336 110.232 116.192 109.152 116.192 107.92C116.192 106.384 116.368 105.08 116.72 104.008C117.072 102.92 117.544 102.04 118.136 101.368C118.728 100.68 119.408 100.184 120.176 99.88C120.96 99.56 121.768 99.4 122.6 99.4C123.544 99.4 124.36 99.56 125.048 99.88C125.752 100.184 126.36 100.568 126.872 101.032L125.768 102.256C125.368 101.888 124.904 101.6 124.376 101.392C123.848 101.168 123.296 101.056 122.72 101.056C122.112 101.056 121.528 101.168 120.968 101.392C120.408 101.616 119.912 101.984 119.48 102.496C119.064 103.008 118.72 103.688 118.448 104.536C118.192 105.368 118.056 106.4 118.04 107.632C118.664 107.024 119.352 106.544 120.104 106.192C120.856 105.824 121.616 105.64 122.384 105.64C123.088 105.64 123.728 105.744 124.304 105.952C124.896 106.144 125.4 106.44 125.816 106.84C126.248 107.224 126.576 107.712 126.8 108.304C127.04 108.896 127.16 109.584 127.16 110.368C127.16 111.104 127.016 111.776 126.728 112.384C126.456 112.976 126.088 113.488 125.624 113.92C125.16 114.352 124.616 114.688 123.992 114.928C123.384 115.168 122.736 115.288 122.048 115.288ZM122.048 113.728C122.496 113.728 122.92 113.648 123.32 113.488C123.72 113.328 124.064 113.104 124.352 112.816C124.64 112.512 124.864 112.16 125.024 111.76C125.2 111.344 125.288 110.88 125.288 110.368C125.288 109.312 125.008 108.512 124.448 107.968C123.888 107.408 123.08 107.128 122.024 107.128C121.416 107.128 120.76 107.288 120.056 107.608C119.368 107.928 118.72 108.456 118.112 109.192C118.256 110.68 118.664 111.808 119.336 112.576C120.024 113.344 120.928 113.728 122.048 113.728ZM131.11 118.84L138.982 97.96H140.758L132.886 118.84H131.11ZM144.421 115L149.125 106.864L144.733 99.256H146.941L149.149 103.288C149.357 103.656 149.557 104.016 149.749 104.368C149.941 104.704 150.165 105.104 150.421 105.568H150.517C150.741 105.104 150.933 104.704 151.093 104.368C151.269 104.016 151.453 103.656 151.645 103.288L153.805 99.256H155.917L151.525 106.96L156.229 115H154.021L151.645 110.752C151.421 110.368 151.197 109.976 150.973 109.576C150.765 109.16 150.525 108.712 150.253 108.232H150.157C149.933 108.712 149.717 109.16 149.509 109.576C149.301 109.976 149.093 110.368 148.885 110.752L146.533 115H144.421ZM164.764 115.288C163.9 115.288 163.116 115.184 162.412 114.976C161.724 114.768 161.14 114.48 160.66 114.112C160.18 113.728 159.804 113.28 159.532 112.768C159.276 112.256 159.148 111.696 159.148 111.088C159.148 110.56 159.244 110.088 159.436 109.672C159.628 109.256 159.876 108.88 160.18 108.544C160.484 108.208 160.828 107.92 161.212 107.68C161.612 107.424 162.02 107.2 162.436 107.008V106.912C161.796 106.512 161.244 106.024 160.78 105.448C160.332 104.856 160.108 104.152 160.108 103.336C160.108 102.744 160.22 102.208 160.444 101.728C160.684 101.248 161.012 100.84 161.428 100.504C161.86 100.152 162.364 99.88 162.94 99.688C163.516 99.496 164.148 99.4 164.836 99.4C165.588 99.4 166.252 99.504 166.828 99.712C167.42 99.904 167.916 100.184 168.316 100.552C168.732 100.904 169.044 101.336 169.252 101.848C169.476 102.344 169.588 102.888 169.588 103.48C169.588 104.2 169.356 104.88 168.892 105.52C168.444 106.144 167.9 106.68 167.26 107.128V107.224C167.676 107.432 168.068 107.656 168.436 107.896C168.804 108.136 169.124 108.408 169.396 108.712C169.668 109.016 169.876 109.376 170.02 109.792C170.18 110.192 170.26 110.664 170.26 111.208C170.26 111.784 170.132 112.32 169.876 112.816C169.636 113.312 169.284 113.744 168.82 114.112C168.356 114.48 167.78 114.768 167.092 114.976C166.42 115.184 165.644 115.288 164.764 115.288ZM165.964 106.648C167.244 105.72 167.884 104.696 167.884 103.576C167.884 102.808 167.62 102.168 167.092 101.656C166.564 101.128 165.796 100.864 164.788 100.864C163.924 100.864 163.228 101.088 162.7 101.536C162.172 101.984 161.908 102.584 161.908 103.336C161.908 103.8 162.012 104.2 162.22 104.536C162.428 104.856 162.716 105.144 163.084 105.4C163.452 105.656 163.876 105.888 164.356 106.096C164.852 106.288 165.388 106.472 165.964 106.648ZM164.812 113.824C165.964 113.824 166.844 113.576 167.452 113.08C168.06 112.584 168.364 111.936 168.364 111.136C168.364 110.608 168.236 110.168 167.98 109.816C167.74 109.448 167.404 109.136 166.972 108.88C166.54 108.624 166.028 108.4 165.436 108.208C164.86 108 164.236 107.784 163.564 107.56C162.812 107.976 162.188 108.448 161.692 108.976C161.196 109.488 160.948 110.128 160.948 110.896C160.948 111.76 161.292 112.464 161.98 113.008C162.684 113.552 163.628 113.824 164.812 113.824ZM179.778 115L180.378 110.104H177.21L176.61 115H175.314L175.914 110.104H173.994V108.736H176.082L176.514 105.184H174.474V103.792H176.682L177.234 99.4H178.506L177.978 103.792H181.146L181.698 99.4H182.97L182.442 103.792H184.362V105.184H182.274L181.842 108.736H183.882V110.104H181.674L181.074 115H179.778ZM180.546 108.736L180.978 105.184H177.81L177.378 108.736H180.546ZM188.049 115V113.824C189.345 112.672 190.489 111.632 191.481 110.704C192.489 109.776 193.329 108.928 194.001 108.16C194.689 107.376 195.209 106.648 195.561 105.976C195.913 105.304 196.089 104.648 196.089 104.008C196.089 103.128 195.817 102.408 195.273 101.848C194.729 101.288 193.889 101.008 192.753 101.008C192.033 101.008 191.361 101.192 190.737 101.56C190.129 101.912 189.577 102.344 189.081 102.856L187.953 101.728C188.641 101.024 189.377 100.464 190.161 100.048C190.961 99.616 191.905 99.4 192.993 99.4C193.761 99.4 194.449 99.512 195.057 99.736C195.681 99.944 196.209 100.248 196.641 100.648C197.073 101.032 197.401 101.504 197.625 102.064C197.865 102.624 197.985 103.24 197.985 103.912C197.985 104.632 197.809 105.36 197.457 106.096C197.121 106.816 196.641 107.568 196.017 108.352C195.393 109.12 194.649 109.928 193.785 110.776C192.921 111.608 191.969 112.496 190.929 113.44C191.409 113.408 191.889 113.376 192.369 113.344C192.849 113.312 193.321 113.296 193.785 113.296H198.825V115H188.049Z" fill="black"/>
<rect y="141" width="276" height="52" fill="#C4C4C4"/>
<path d="M30.448 177V161.256H35.2C36.064 161.256 36.856 161.336 37.576 161.496C38.296 161.656 38.912 161.92 39.424 162.288C39.936 162.64 40.328 163.112 40.6 163.704C40.888 164.296 41.032 165.024 41.032 165.888C41.032 166.72 40.888 167.44 40.6 168.048C40.328 168.656 39.928 169.16 39.4 169.56C38.888 169.96 38.272 170.264 37.552 170.472C36.848 170.664 36.064 170.76 35.2 170.76H32.44V177H30.448ZM32.44 169.128H34.96C36.352 169.128 37.376 168.872 38.032 168.36C38.688 167.832 39.016 167.008 39.016 165.888C39.016 164.752 38.68 163.968 38.008 163.536C37.336 163.088 36.32 162.864 34.96 162.864H32.44V169.128ZM50.8146 177.288C49.8386 177.288 48.9346 177.104 48.1026 176.736C47.2706 176.368 46.5426 175.84 45.9186 175.152C45.3106 174.448 44.8306 173.592 44.4786 172.584C44.1266 171.56 43.9506 170.408 43.9506 169.128C43.9506 167.864 44.1266 166.728 44.4786 165.72C44.8306 164.712 45.3186 163.856 45.9426 163.152C46.5666 162.448 47.3106 161.912 48.1746 161.544C49.0386 161.16 49.9826 160.968 51.0066 160.968C51.9506 160.968 52.7826 161.16 53.5026 161.544C54.2386 161.928 54.8386 162.376 55.3026 162.888L54.1746 164.16C53.7586 163.728 53.2946 163.384 52.7826 163.128C52.2706 162.856 51.6786 162.72 51.0066 162.72C50.2546 162.72 49.5666 162.872 48.9426 163.176C48.3346 163.464 47.8146 163.888 47.3826 164.448C46.9506 164.992 46.6146 165.656 46.3746 166.44C46.1346 167.224 46.0146 168.104 46.0146 169.08C46.0146 170.072 46.1346 170.968 46.3746 171.768C46.6146 172.552 46.9506 173.224 47.3826 173.784C47.8146 174.344 48.3346 174.776 48.9426 175.08C49.5666 175.384 50.2546 175.536 51.0066 175.536C51.7266 175.536 52.3666 175.384 52.9266 175.08C53.5026 174.776 54.0466 174.344 54.5586 173.784L55.6866 175.008C55.0626 175.728 54.3586 176.288 53.5746 176.688C52.7906 177.088 51.8706 177.288 50.8146 177.288ZM59.0613 177V175.296H62.9733V162.936H59.0613V161.256H68.9012V162.936H64.9893V175.296H68.9012V177H59.0613ZM73.9079 177V161.256H83.6519V162.936H75.9239V167.88H82.4519V169.584H75.9239V175.296H83.8919V177H73.9079ZM86.8585 177L91.5625 168.864L87.1705 161.256H89.3785L91.5865 165.288C91.7945 165.656 91.9945 166.016 92.1865 166.368C92.3785 166.704 92.6025 167.104 92.8585 167.568H92.9545C93.1785 167.104 93.3705 166.704 93.5305 166.368C93.7065 166.016 93.8905 165.656 94.0825 165.288L96.2425 161.256H98.3545L93.9625 168.96L98.6665 177H96.4585L94.0825 172.752C93.8585 172.368 93.6345 171.976 93.4105 171.576C93.2025 171.16 92.9625 170.712 92.6905 170.232H92.5945C92.3705 170.712 92.1545 171.16 91.9465 171.576C91.7385 171.976 91.5305 172.368 91.3225 172.752L88.9705 177H86.8585ZM102.281 177V175.368H106.697V164.088H103.265V162.816C104.177 162.688 104.937 162.536 105.545 162.36C106.153 162.184 106.705 161.96 107.201 161.688H108.665V175.368H112.673V177H102.281ZM122.048 177.288C121.216 177.288 120.44 177.136 119.72 176.832C119.016 176.528 118.4 176.072 117.872 175.464C117.344 174.84 116.928 174.072 116.624 173.16C116.336 172.232 116.192 171.152 116.192 169.92C116.192 168.384 116.368 167.08 116.72 166.008C117.072 164.92 117.544 164.04 118.136 163.368C118.728 162.68 119.408 162.184 120.176 161.88C120.96 161.56 121.768 161.4 122.6 161.4C123.544 161.4 124.36 161.56 125.048 161.88C125.752 162.184 126.36 162.568 126.872 163.032L125.768 164.256C125.368 163.888 124.904 163.6 124.376 163.392C123.848 163.168 123.296 163.056 122.72 163.056C122.112 163.056 121.528 163.168 120.968 163.392C120.408 163.616 119.912 163.984 119.48 164.496C119.064 165.008 118.72 165.688 118.448 166.536C118.192 167.368 118.056 168.4 118.04 169.632C118.664 169.024 119.352 168.544 120.104 168.192C120.856 167.824 121.616 167.64 122.384 167.64C123.088 167.64 123.728 167.744 124.304 167.952C124.896 168.144 125.4 168.44 125.816 168.84C126.248 169.224 126.576 169.712 126.8 170.304C127.04 170.896 127.16 171.584 127.16 172.368C127.16 173.104 127.016 173.776 126.728 174.384C126.456 174.976 126.088 175.488 125.624 175.92C125.16 176.352 124.616 176.688 123.992 176.928C123.384 177.168 122.736 177.288 122.048 177.288ZM122.048 175.728C122.496 175.728 122.92 175.648 123.32 175.488C123.72 175.328 124.064 175.104 124.352 174.816C124.64 174.512 124.864 174.16 125.024 173.76C125.2 173.344 125.288 172.88 125.288 172.368C125.288 171.312 125.008 170.512 124.448 169.968C123.888 169.408 123.08 169.128 122.024 169.128C121.416 169.128 120.76 169.288 120.056 169.608C119.368 169.928 118.72 170.456 118.112 171.192C118.256 172.68 118.664 173.808 119.336 174.576C120.024 175.344 120.928 175.728 122.048 175.728ZM131.11 180.84L138.982 159.96H140.758L132.886 180.84H131.11ZM144.421 177L149.125 168.864L144.733 161.256H146.941L149.149 165.288C149.357 165.656 149.557 166.016 149.749 166.368C149.941 166.704 150.165 167.104 150.421 167.568H150.517C150.741 167.104 150.933 166.704 151.093 166.368C151.269 166.016 151.453 165.656 151.645 165.288L153.805 161.256H155.917L151.525 168.96L156.229 177H154.021L151.645 172.752C151.421 172.368 151.197 171.976 150.973 171.576C150.765 171.16 150.525 170.712 150.253 170.232H150.157C149.933 170.712 149.717 171.16 149.509 171.576C149.301 171.976 149.093 172.368 148.885 172.752L146.533 177H144.421ZM164.764 177.288C163.9 177.288 163.116 177.184 162.412 176.976C161.724 176.768 161.14 176.48 160.66 176.112C160.18 175.728 159.804 175.28 159.532 174.768C159.276 174.256 159.148 173.696 159.148 173.088C159.148 172.56 159.244 172.088 159.436 171.672C159.628 171.256 159.876 170.88 160.18 170.544C160.484 170.208 160.828 169.92 161.212 169.68C161.612 169.424 162.02 169.2 162.436 169.008V168.912C161.796 168.512 161.244 168.024 160.78 167.448C160.332 166.856 160.108 166.152 160.108 165.336C160.108 164.744 160.22 164.208 160.444 163.728C160.684 163.248 161.012 162.84 161.428 162.504C161.86 162.152 162.364 161.88 162.94 161.688C163.516 161.496 164.148 161.4 164.836 161.4C165.588 161.4 166.252 161.504 166.828 161.712C167.42 161.904 167.916 162.184 168.316 162.552C168.732 162.904 169.044 163.336 169.252 163.848C169.476 164.344 169.588 164.888 169.588 165.48C169.588 166.2 169.356 166.88 168.892 167.52C168.444 168.144 167.9 168.68 167.26 169.128V169.224C167.676 169.432 168.068 169.656 168.436 169.896C168.804 170.136 169.124 170.408 169.396 170.712C169.668 171.016 169.876 171.376 170.02 171.792C170.18 172.192 170.26 172.664 170.26 173.208C170.26 173.784 170.132 174.32 169.876 174.816C169.636 175.312 169.284 175.744 168.82 176.112C168.356 176.48 167.78 176.768 167.092 176.976C166.42 177.184 165.644 177.288 164.764 177.288ZM165.964 168.648C167.244 167.72 167.884 166.696 167.884 165.576C167.884 164.808 167.62 164.168 167.092 163.656C166.564 163.128 165.796 162.864 164.788 162.864C163.924 162.864 163.228 163.088 162.7 163.536C162.172 163.984 161.908 164.584 161.908 165.336C161.908 165.8 162.012 166.2 162.22 166.536C162.428 166.856 162.716 167.144 163.084 167.4C163.452 167.656 163.876 167.888 164.356 168.096C164.852 168.288 165.388 168.472 165.964 168.648ZM164.812 175.824C165.964 175.824 166.844 175.576 167.452 175.08C168.06 174.584 168.364 173.936 168.364 173.136C168.364 172.608 168.236 172.168 167.98 171.816C167.74 171.448 167.404 171.136 166.972 170.88C166.54 170.624 166.028 170.4 165.436 170.208C164.86 170 164.236 169.784 163.564 169.56C162.812 169.976 162.188 170.448 161.692 170.976C161.196 171.488 160.948 172.128 160.948 172.896C160.948 173.76 161.292 174.464 161.98 175.008C162.684 175.552 163.628 175.824 164.812 175.824ZM179.778 177L180.378 172.104H177.21L176.61 177H175.314L175.914 172.104H173.994V170.736H176.082L176.514 167.184H174.474V165.792H176.682L177.234 161.4H178.506L177.978 165.792H181.146L181.698 161.4H182.97L182.442 165.792H184.362V167.184H182.274L181.842 170.736H183.882V172.104H181.674L181.074 177H179.778ZM180.546 170.736L180.978 167.184H177.81L177.378 170.736H180.546ZM193.185 177.288C191.857 177.288 190.745 177.072 189.849 176.64C188.953 176.192 188.225 175.688 187.665 175.128L188.673 173.832C189.185 174.312 189.793 174.736 190.497 175.104C191.217 175.472 192.073 175.656 193.065 175.656C193.593 175.656 194.081 175.592 194.529 175.464C194.977 175.32 195.361 175.128 195.681 174.888C196.017 174.648 196.273 174.36 196.449 174.024C196.641 173.672 196.737 173.28 196.737 172.848C196.737 172.4 196.633 171.992 196.425 171.624C196.233 171.24 195.913 170.912 195.465 170.64C195.017 170.368 194.441 170.16 193.737 170.016C193.033 169.872 192.177 169.8 191.169 169.8V168.288C192.081 168.288 192.849 168.216 193.473 168.072C194.113 167.928 194.633 167.728 195.033 167.472C195.433 167.216 195.721 166.912 195.897 166.56C196.089 166.208 196.185 165.832 196.185 165.432C196.185 164.68 195.897 164.088 195.321 163.656C194.761 163.224 194.009 163.008 193.065 163.008C192.345 163.008 191.665 163.152 191.025 163.44C190.385 163.728 189.809 164.104 189.297 164.568L188.241 163.32C188.881 162.76 189.609 162.304 190.425 161.952C191.241 161.584 192.145 161.4 193.137 161.4C193.857 161.4 194.521 161.488 195.129 161.664C195.753 161.84 196.289 162.096 196.737 162.432C197.201 162.752 197.561 163.152 197.817 163.632C198.073 164.112 198.201 164.664 198.201 165.288C198.201 166.216 197.897 166.976 197.289 167.568C196.681 168.16 195.897 168.616 194.937 168.936V169.032C195.449 169.144 195.929 169.312 196.377 169.536C196.841 169.744 197.249 170.016 197.601 170.352C197.953 170.672 198.225 171.048 198.417 171.48C198.625 171.912 198.729 172.392 198.729 172.92C198.729 173.592 198.585 174.2 198.297 174.744C198.009 175.288 197.609 175.752 197.097 176.136C196.601 176.504 196.017 176.792 195.345 177C194.673 177.192 193.953 177.288 193.185 177.288Z" fill="black"/>
<rect x="123" y="265" width="152.851" height="52" fill="#C4C4C4"/>
<path d="M145.088 301V285.256H148.976C151.36 285.256 153.168 285.928 154.4 287.272C155.648 288.616 156.272 290.544 156.272 293.056C156.272 295.568 155.648 297.52 154.4 298.912C153.168 300.304 151.392 301 149.072 301H145.088ZM147.08 299.368H148.832C150.64 299.368 151.984 298.816 152.864 297.712C153.76 296.608 154.208 295.056 154.208 293.056C154.208 291.056 153.76 289.528 152.864 288.472C151.984 287.416 150.64 286.888 148.832 286.888H147.08V299.368ZM159.671 301V299.296H163.583V286.936H159.671V285.256H169.511V286.936H165.599V299.296H169.511V301H159.671ZM173.509 301V285.256H175.957L178.165 291.976L178.933 294.52H179.029L179.773 291.976L182.005 285.256H184.453V301H182.533V293.128C182.533 292.744 182.541 292.304 182.557 291.808C182.589 291.296 182.621 290.784 182.653 290.272C182.701 289.76 182.741 289.264 182.773 288.784C182.805 288.304 182.837 287.896 182.869 287.56H182.797L181.909 290.632L179.653 296.824H178.213L176.005 290.632L175.093 287.56H175.045C175.077 287.896 175.109 288.304 175.141 288.784C175.189 289.264 175.229 289.76 175.261 290.272C175.293 290.784 175.317 291.296 175.333 291.808C175.365 292.304 175.381 292.744 175.381 293.128V301H173.509ZM187.9 301V285.256H190.348L192.556 291.976L193.324 294.52H193.42L194.164 291.976L196.396 285.256H198.844V301H196.924V293.128C196.924 292.744 196.932 292.304 196.948 291.808C196.98 291.296 197.012 290.784 197.044 290.272C197.092 289.76 197.132 289.264 197.164 288.784C197.196 288.304 197.228 287.896 197.26 287.56H197.188L196.3 290.632L194.044 296.824H192.604L190.396 290.632L189.484 287.56H189.436C189.468 287.896 189.5 288.304 189.532 288.784C189.58 289.264 189.62 289.76 189.652 290.272C189.684 290.784 189.708 291.296 189.724 291.808C189.756 292.304 189.772 292.744 189.772 293.128V301H187.9ZM207.763 301.288C207.219 301.288 206.755 301.104 206.371 300.736C206.003 300.368 205.819 299.88 205.819 299.272C205.819 298.664 206.003 298.176 206.371 297.808C206.755 297.424 207.219 297.232 207.763 297.232C208.307 297.232 208.763 297.424 209.131 297.808C209.515 298.176 209.707 298.664 209.707 299.272C209.707 299.88 209.515 300.368 209.131 300.736C208.763 301.104 208.307 301.288 207.763 301.288ZM216.705 301V299.824C218.001 298.672 219.145 297.632 220.137 296.704C221.145 295.776 221.985 294.928 222.657 294.16C223.345 293.376 223.865 292.648 224.217 291.976C224.569 291.304 224.745 290.648 224.745 290.008C224.745 289.128 224.473 288.408 223.929 287.848C223.385 287.288 222.545 287.008 221.409 287.008C220.689 287.008 220.017 287.192 219.393 287.56C218.785 287.912 218.233 288.344 217.737 288.856L216.609 287.728C217.297 287.024 218.033 286.464 218.817 286.048C219.617 285.616 220.561 285.4 221.649 285.4C222.417 285.4 223.105 285.512 223.713 285.736C224.337 285.944 224.865 286.248 225.297 286.648C225.729 287.032 226.057 287.504 226.281 288.064C226.521 288.624 226.641 289.24 226.641 289.912C226.641 290.632 226.465 291.36 226.113 292.096C225.777 292.816 225.297 293.568 224.673 294.352C224.049 295.12 223.305 295.928 222.441 296.776C221.577 297.608 220.625 298.496 219.585 299.44C220.065 299.408 220.545 299.376 221.025 299.344C221.505 299.312 221.977 299.296 222.441 299.296H227.481V301H216.705ZM237.216 301L237.816 296.104H234.648L234.048 301H232.752L233.352 296.104H231.432V294.736H233.52L233.952 291.184H231.912V289.792H234.12L234.672 285.4H235.944L235.416 289.792H238.584L239.136 285.4H240.408L239.88 289.792H241.8V291.184H239.712L239.28 294.736H241.32V296.104H239.112L238.512 301H237.216ZM237.984 294.736L238.416 291.184H235.248L234.816 294.736H237.984ZM246.062 301V299.368H250.478V288.088H247.046V286.816C247.958 286.688 248.718 286.536 249.326 286.36C249.934 286.184 250.486 285.96 250.982 285.688H252.446V299.368H256.454V301H246.062Z" fill="black"/>
<rect x="123" y="327" width="152.851" height="52" fill="#C4C4C4"/>
<path d="M145.088 362V346.256H148.976C151.36 346.256 153.168 346.928 154.4 348.272C155.648 349.616 156.272 351.544 156.272 354.056C156.272 356.568 155.648 358.52 154.4 359.912C153.168 361.304 151.392 362 149.072 362H145.088ZM147.08 360.368H148.832C150.64 360.368 151.984 359.816 152.864 358.712C153.76 357.608 154.208 356.056 154.208 354.056C154.208 352.056 153.76 350.528 152.864 349.472C151.984 348.416 150.64 347.888 148.832 347.888H147.08V360.368ZM159.671 362V360.296H163.583V347.936H159.671V346.256H169.511V347.936H165.599V360.296H169.511V362H159.671ZM173.509 362V346.256H175.957L178.165 352.976L178.933 355.52H179.029L179.773 352.976L182.005 346.256H184.453V362H182.533V354.128C182.533 353.744 182.541 353.304 182.557 352.808C182.589 352.296 182.621 351.784 182.653 351.272C182.701 350.76 182.741 350.264 182.773 349.784C182.805 349.304 182.837 348.896 182.869 348.56H182.797L181.909 351.632L179.653 357.824H178.213L176.005 351.632L175.093 348.56H175.045C175.077 348.896 175.109 349.304 175.141 349.784C175.189 350.264 175.229 350.76 175.261 351.272C175.293 351.784 175.317 352.296 175.333 352.808C175.365 353.304 175.381 353.744 175.381 354.128V362H173.509ZM187.9 362V346.256H190.348L192.556 352.976L193.324 355.52H193.42L194.164 352.976L196.396 346.256H198.844V362H196.924V354.128C196.924 353.744 196.932 353.304 196.948 352.808C196.98 352.296 197.012 351.784 197.044 351.272C197.092 350.76 197.132 350.264 197.164 349.784C197.196 349.304 197.228 348.896 197.26 348.56H197.188L196.3 351.632L194.044 357.824H192.604L190.396 351.632L189.484 348.56H189.436C189.468 348.896 189.5 349.304 189.532 349.784C189.58 350.264 189.62 350.76 189.652 351.272C189.684 351.784 189.708 352.296 189.724 352.808C189.756 353.304 189.772 353.744 189.772 354.128V362H187.9ZM207.763 362.288C207.219 362.288 206.755 362.104 206.371 361.736C206.003 361.368 205.819 360.88 205.819 360.272C205.819 359.664 206.003 359.176 206.371 358.808C206.755 358.424 207.219 358.232 207.763 358.232C208.307 358.232 208.763 358.424 209.131 358.808C209.515 359.176 209.707 359.664 209.707 360.272C209.707 360.88 209.515 361.368 209.131 361.736C208.763 362.104 208.307 362.288 207.763 362.288ZM216.705 362V360.824C218.001 359.672 219.145 358.632 220.137 357.704C221.145 356.776 221.985 355.928 222.657 355.16C223.345 354.376 223.865 353.648 224.217 352.976C224.569 352.304 224.745 351.648 224.745 351.008C224.745 350.128 224.473 349.408 223.929 348.848C223.385 348.288 222.545 348.008 221.409 348.008C220.689 348.008 220.017 348.192 219.393 348.56C218.785 348.912 218.233 349.344 217.737 349.856L216.609 348.728C217.297 348.024 218.033 347.464 218.817 347.048C219.617 346.616 220.561 346.4 221.649 346.4C222.417 346.4 223.105 346.512 223.713 346.736C224.337 346.944 224.865 347.248 225.297 347.648C225.729 348.032 226.057 348.504 226.281 349.064C226.521 349.624 226.641 350.24 226.641 350.912C226.641 351.632 226.465 352.36 226.113 353.096C225.777 353.816 225.297 354.568 224.673 355.352C224.049 356.12 223.305 356.928 222.441 357.776C221.577 358.608 220.625 359.496 219.585 360.44C220.065 360.408 220.545 360.376 221.025 360.344C221.505 360.312 221.977 360.296 222.441 360.296H227.481V362H216.705ZM237.216 362L237.816 357.104H234.648L234.048 362H232.752L233.352 357.104H231.432V355.736H233.52L233.952 352.184H231.912V350.792H234.12L234.672 346.4H235.944L235.416 350.792H238.584L239.136 346.4H240.408L239.88 350.792H241.8V352.184H239.712L239.28 355.736H241.32V357.104H239.112L238.512 362H237.216ZM237.984 355.736L238.416 352.184H235.248L234.816 355.736H237.984ZM245.486 362V360.824C246.782 359.672 247.926 358.632 248.918 357.704C249.926 356.776 250.766 355.928 251.438 355.16C252.126 354.376 252.646 353.648 252.998 352.976C253.35 352.304 253.526 351.648 253.526 351.008C253.526 350.128 253.254 349.408 252.71 348.848C252.166 348.288 251.326 348.008 250.19 348.008C249.47 348.008 248.798 348.192 248.174 348.56C247.566 348.912 247.014 349.344 246.518 349.856L245.39 348.728C246.078 348.024 246.814 347.464 247.598 347.048C248.398 346.616 249.342 346.4 250.43 346.4C251.198 346.4 251.886 346.512 252.494 346.736C253.118 346.944 253.646 347.248 254.078 347.648C254.51 348.032 254.838 348.504 255.062 349.064C255.302 349.624 255.422 350.24 255.422 350.912C255.422 351.632 255.246 352.36 254.894 353.096C254.558 353.816 254.078 354.568 253.454 355.352C252.83 356.12 252.086 356.928 251.222 357.776C250.358 358.608 249.406 359.496 248.366 360.44C248.846 360.408 249.326 360.376 249.806 360.344C250.286 360.312 250.758 360.296 251.222 360.296H256.262V362H245.486Z" fill="black"/>
<rect x="126" y="451" width="152.851" height="52" fill="#C4C4C4"/>
<path d="M148.448 486V470.256H153.2C154.064 470.256 154.856 470.336 155.576 470.496C156.296 470.656 156.912 470.92 157.424 471.288C157.936 471.64 158.328 472.112 158.6 472.704C158.888 473.296 159.032 474.024 159.032 474.888C159.032 475.72 158.888 476.44 158.6 477.048C158.328 477.656 157.928 478.16 157.4 478.56C156.888 478.96 156.272 479.264 155.552 479.472C154.848 479.664 154.064 479.76 153.2 479.76H150.44V486H148.448ZM150.44 478.128H152.96C154.352 478.128 155.376 477.872 156.032 477.36C156.688 476.832 157.016 476.008 157.016 474.888C157.016 473.752 156.68 472.968 156.008 472.536C155.336 472.088 154.32 471.864 152.96 471.864H150.44V478.128ZM168.815 486.288C167.839 486.288 166.935 486.104 166.103 485.736C165.271 485.368 164.543 484.84 163.919 484.152C163.311 483.448 162.831 482.592 162.479 481.584C162.127 480.56 161.951 479.408 161.951 478.128C161.951 476.864 162.127 475.728 162.479 474.72C162.831 473.712 163.319 472.856 163.943 472.152C164.567 471.448 165.311 470.912 166.175 470.544C167.039 470.16 167.983 469.968 169.007 469.968C169.951 469.968 170.783 470.16 171.503 470.544C172.239 470.928 172.839 471.376 173.303 471.888L172.175 473.16C171.759 472.728 171.295 472.384 170.783 472.128C170.271 471.856 169.679 471.72 169.007 471.72C168.255 471.72 167.567 471.872 166.943 472.176C166.335 472.464 165.815 472.888 165.383 473.448C164.951 473.992 164.615 474.656 164.375 475.44C164.135 476.224 164.015 477.104 164.015 478.08C164.015 479.072 164.135 479.968 164.375 480.768C164.615 481.552 164.951 482.224 165.383 482.784C165.815 483.344 166.335 483.776 166.943 484.08C167.567 484.384 168.255 484.536 169.007 484.536C169.727 484.536 170.367 484.384 170.927 484.08C171.503 483.776 172.047 483.344 172.559 482.784L173.687 484.008C173.063 484.728 172.359 485.288 171.575 485.688C170.791 486.088 169.871 486.288 168.815 486.288ZM177.061 486V484.296H180.973V471.936H177.061V470.256H186.901V471.936H182.989V484.296H186.901V486H177.061ZM191.908 486V470.256H201.652V471.936H193.924V476.88H200.452V478.584H193.924V484.296H201.892V486H191.908ZM204.859 486L209.562 477.864L205.171 470.256H207.379L209.587 474.288C209.795 474.656 209.995 475.016 210.187 475.368C210.379 475.704 210.603 476.104 210.859 476.568H210.955C211.179 476.104 211.371 475.704 211.531 475.368C211.707 475.016 211.891 474.656 212.083 474.288L214.243 470.256H216.355L211.963 477.96L216.667 486H214.459L212.083 481.752C211.859 481.368 211.635 480.976 211.411 480.576C211.203 480.16 210.963 479.712 210.691 479.232H210.595C210.371 479.712 210.155 480.16 209.947 480.576C209.739 480.976 209.531 481.368 209.323 481.752L206.971 486H204.859ZM226.785 486V481.776H218.889V480.456L226.545 470.688H228.657V480.192H231.033V481.776H228.657V486H226.785ZM221.073 480.192H226.785V475.44C226.801 475.024 226.817 474.576 226.833 474.096C226.849 473.6 226.873 473.144 226.905 472.728H226.785C226.545 473.096 226.289 473.472 226.017 473.856C225.745 474.224 225.481 474.592 225.225 474.96L221.073 480.192Z" fill="black"/>
<path d="M0 17H276V69H0V17Z" fill="#C4C4C4"/>
<path d="M30.448 50V34.256H35.2C36.064 34.256 36.856 34.336 37.576 34.496C38.296 34.656 38.912 34.92 39.424 35.288C39.936 35.64 40.328 36.112 40.6 36.704C40.888 37.296 41.032 38.024 41.032 38.888C41.032 39.72 40.888 40.44 40.6 41.048C40.328 41.656 39.928 42.16 39.4 42.56C38.888 42.96 38.272 43.264 37.552 43.472C36.848 43.664 36.064 43.76 35.2 43.76H32.44V50H30.448ZM32.44 42.128H34.96C36.352 42.128 37.376 41.872 38.032 41.36C38.688 40.832 39.016 40.008 39.016 38.888C39.016 37.752 38.68 36.968 38.008 36.536C37.336 36.088 36.32 35.864 34.96 35.864H32.44V42.128ZM50.8146 50.288C49.8386 50.288 48.9346 50.104 48.1026 49.736C47.2706 49.368 46.5426 48.84 45.9186 48.152C45.3106 47.448 44.8306 46.592 44.4786 45.584C44.1266 44.56 43.9506 43.408 43.9506 42.128C43.9506 40.864 44.1266 39.728 44.4786 38.72C44.8306 37.712 45.3186 36.856 45.9426 36.152C46.5666 35.448 47.3106 34.912 48.1746 34.544C49.0386 34.16 49.9826 33.968 51.0066 33.968C51.9506 33.968 52.7826 34.16 53.5026 34.544C54.2386 34.928 54.8386 35.376 55.3026 35.888L54.1746 37.16C53.7586 36.728 53.2946 36.384 52.7826 36.128C52.2706 35.856 51.6786 35.72 51.0066 35.72C50.2546 35.72 49.5666 35.872 48.9426 36.176C48.3346 36.464 47.8146 36.888 47.3826 37.448C46.9506 37.992 46.6146 38.656 46.3746 39.44C46.1346 40.224 46.0146 41.104 46.0146 42.08C46.0146 43.072 46.1346 43.968 46.3746 44.768C46.6146 45.552 46.9506 46.224 47.3826 46.784C47.8146 47.344 48.3346 47.776 48.9426 48.08C49.5666 48.384 50.2546 48.536 51.0066 48.536C51.7266 48.536 52.3666 48.384 52.9266 48.08C53.5026 47.776 54.0466 47.344 54.5586 46.784L55.6866 48.008C55.0626 48.728 54.3586 49.288 53.5746 49.688C52.7906 50.088 51.8706 50.288 50.8146 50.288ZM59.0613 50V48.296H62.9733V35.936H59.0613V34.256H68.9012V35.936H64.9893V48.296H68.9012V50H59.0613ZM73.9079 50V34.256H83.6519V35.936H75.9239V40.88H82.4519V42.584H75.9239V48.296H83.8919V50H73.9079ZM86.8585 50L91.5625 41.864L87.1705 34.256H89.3785L91.5865 38.288C91.7945 38.656 91.9945 39.016 92.1865 39.368C92.3785 39.704 92.6025 40.104 92.8585 40.568H92.9545C93.1785 40.104 93.3705 39.704 93.5305 39.368C93.7065 39.016 93.8905 38.656 94.0825 38.288L96.2425 34.256H98.3545L93.9625 41.96L98.6665 50H96.4585L94.0825 45.752C93.8585 45.368 93.6345 44.976 93.4105 44.576C93.2025 44.16 92.9625 43.712 92.6905 43.232H92.5945C92.3705 43.712 92.1545 44.16 91.9465 44.576C91.7385 44.976 91.5305 45.368 91.3225 45.752L88.9705 50H86.8585ZM102.281 50V48.368H106.697V37.088H103.265V35.816C104.177 35.688 104.937 35.536 105.545 35.36C106.153 35.184 106.705 34.96 107.201 34.688H108.665V48.368H112.673V50H102.281ZM122.048 50.288C121.216 50.288 120.44 50.136 119.72 49.832C119.016 49.528 118.4 49.072 117.872 48.464C117.344 47.84 116.928 47.072 116.624 46.16C116.336 45.232 116.192 44.152 116.192 42.92C116.192 41.384 116.368 40.08 116.72 39.008C117.072 37.92 117.544 37.04 118.136 36.368C118.728 35.68 119.408 35.184 120.176 34.88C120.96 34.56 121.768 34.4 122.6 34.4C123.544 34.4 124.36 34.56 125.048 34.88C125.752 35.184 126.36 35.568 126.872 36.032L125.768 37.256C125.368 36.888 124.904 36.6 124.376 36.392C123.848 36.168 123.296 36.056 122.72 36.056C122.112 36.056 121.528 36.168 120.968 36.392C120.408 36.616 119.912 36.984 119.48 37.496C119.064 38.008 118.72 38.688 118.448 39.536C118.192 40.368 118.056 41.4 118.04 42.632C118.664 42.024 119.352 41.544 120.104 41.192C120.856 40.824 121.616 40.64 122.384 40.64C123.088 40.64 123.728 40.744 124.304 40.952C124.896 41.144 125.4 41.44 125.816 41.84C126.248 42.224 126.576 42.712 126.8 43.304C127.04 43.896 127.16 44.584 127.16 45.368C127.16 46.104 127.016 46.776 126.728 47.384C126.456 47.976 126.088 48.488 125.624 48.92C125.16 49.352 124.616 49.688 123.992 49.928C123.384 50.168 122.736 50.288 122.048 50.288ZM122.048 48.728C122.496 48.728 122.92 48.648 123.32 48.488C123.72 48.328 124.064 48.104 124.352 47.816C124.64 47.512 124.864 47.16 125.024 46.76C125.2 46.344 125.288 45.88 125.288 45.368C125.288 44.312 125.008 43.512 124.448 42.968C123.888 42.408 123.08 42.128 122.024 42.128C121.416 42.128 120.76 42.288 120.056 42.608C119.368 42.928 118.72 43.456 118.112 44.192C118.256 45.68 118.664 46.808 119.336 47.576C120.024 48.344 120.928 48.728 122.048 48.728ZM131.11 53.84L138.982 32.96H140.758L132.886 53.84H131.11ZM144.421 50L149.125 41.864L144.733 34.256H146.941L149.149 38.288C149.357 38.656 149.557 39.016 149.749 39.368C149.941 39.704 150.165 40.104 150.421 40.568H150.517C150.741 40.104 150.933 39.704 151.093 39.368C151.269 39.016 151.453 38.656 151.645 38.288L153.805 34.256H155.917L151.525 41.96L156.229 50H154.021L151.645 45.752C151.421 45.368 151.197 44.976 150.973 44.576C150.765 44.16 150.525 43.712 150.253 43.232H150.157C149.933 43.712 149.717 44.16 149.509 44.576C149.301 44.976 149.093 45.368 148.885 45.752L146.533 50H144.421ZM164.764 50.288C163.9 50.288 163.116 50.184 162.412 49.976C161.724 49.768 161.14 49.48 160.66 49.112C160.18 48.728 159.804 48.28 159.532 47.768C159.276 47.256 159.148 46.696 159.148 46.088C159.148 45.56 159.244 45.088 159.436 44.672C159.628 44.256 159.876 43.88 160.18 43.544C160.484 43.208 160.828 42.92 161.212 42.68C161.612 42.424 162.02 42.2 162.436 42.008V41.912C161.796 41.512 161.244 41.024 160.78 40.448C160.332 39.856 160.108 39.152 160.108 38.336C160.108 37.744 160.22 37.208 160.444 36.728C160.684 36.248 161.012 35.84 161.428 35.504C161.86 35.152 162.364 34.88 162.94 34.688C163.516 34.496 164.148 34.4 164.836 34.4C165.588 34.4 166.252 34.504 166.828 34.712C167.42 34.904 167.916 35.184 168.316 35.552C168.732 35.904 169.044 36.336 169.252 36.848C169.476 37.344 169.588 37.888 169.588 38.48C169.588 39.2 169.356 39.88 168.892 40.52C168.444 41.144 167.9 41.68 167.26 42.128V42.224C167.676 42.432 168.068 42.656 168.436 42.896C168.804 43.136 169.124 43.408 169.396 43.712C169.668 44.016 169.876 44.376 170.02 44.792C170.18 45.192 170.26 45.664 170.26 46.208C170.26 46.784 170.132 47.32 169.876 47.816C169.636 48.312 169.284 48.744 168.82 49.112C168.356 49.48 167.78 49.768 167.092 49.976C166.42 50.184 165.644 50.288 164.764 50.288ZM165.964 41.648C167.244 40.72 167.884 39.696 167.884 38.576C167.884 37.808 167.62 37.168 167.092 36.656C166.564 36.128 165.796 35.864 164.788 35.864C163.924 35.864 163.228 36.088 162.7 36.536C162.172 36.984 161.908 37.584 161.908 38.336C161.908 38.8 162.012 39.2 162.22 39.536C162.428 39.856 162.716 40.144 163.084 40.4C163.452 40.656 163.876 40.888 164.356 41.096C164.852 41.288 165.388 41.472 165.964 41.648ZM164.812 48.824C165.964 48.824 166.844 48.576 167.452 48.08C168.06 47.584 168.364 46.936 168.364 46.136C168.364 45.608 168.236 45.168 167.98 44.816C167.74 44.448 167.404 44.136 166.972 43.88C166.54 43.624 166.028 43.4 165.436 43.208C164.86 43 164.236 42.784 163.564 42.56C162.812 42.976 162.188 43.448 161.692 43.976C161.196 44.488 160.948 45.128 160.948 45.896C160.948 46.76 161.292 47.464 161.98 48.008C162.684 48.552 163.628 48.824 164.812 48.824ZM179.778 50L180.378 45.104H177.21L176.61 50H175.314L175.914 45.104H173.994V43.736H176.082L176.514 40.184H174.474V38.792H176.682L177.234 34.4H178.506L177.978 38.792H181.146L181.698 34.4H182.97L182.442 38.792H184.362V40.184H182.274L181.842 43.736H183.882V45.104H181.674L181.074 50H179.778ZM180.546 43.736L180.978 40.184H177.81L177.378 43.736H180.546ZM188.625 50V48.368H193.041V37.088H189.609V35.816C190.521 35.688 191.281 35.536 191.889 35.36C192.497 35.184 193.049 34.96 193.545 34.688H195.009V48.368H199.017V50H188.625Z" fill="black"/>
<line x1="276" y1="105.5" x2="489" y2="105.5" stroke="black"/>
<line x1="276" y1="42.5" x2="489" y2="42.5" stroke="black"/>
<line x1="276" y1="166.5" x2="489" y2="166.5" stroke="black"/>
<line x1="262.178" y1="233.533" x2="375.178" y2="276.533" stroke="black"/>
<line x1="276" y1="351.5" x2="489" y2="351.5" stroke="black"/>
<line x1="276" y1="476.5" x2="489" y2="476.5" stroke="black"/>
<line x1="275.802" y1="152.541" x2="363.802" y2="114.541" stroke="black"/>
<circle cx="383" cy="106" r="25" fill="#C4C4C4"/>
<path d="M382.32 115.288C381.168 115.288 380.104 115.08 379.128 114.664C378.168 114.248 377.328 113.68 376.608 112.96L377.808 111.568C378.4 112.16 379.088 112.64 379.872 113.008C380.656 113.36 381.504 113.536 382.416 113.536C383.504 113.536 384.344 113.304 384.936 112.84C385.544 112.376 385.848 111.776 385.848 111.04C385.848 110.624 385.776 110.272 385.632 109.984C385.488 109.696 385.288 109.448 385.032 109.24C384.776 109.032 384.472 108.848 384.12 108.688C383.784 108.528 383.416 108.36 383.016 108.184L380.76 107.2C380.36 107.04 379.96 106.848 379.56 106.624C379.16 106.4 378.792 106.128 378.456 105.808C378.136 105.488 377.872 105.112 377.664 104.68C377.456 104.232 377.352 103.72 377.352 103.144C377.352 102.552 377.48 102 377.736 101.488C377.992 100.976 378.344 100.536 378.792 100.168C379.256 99.784 379.8 99.488 380.424 99.28C381.064 99.072 381.76 98.968 382.512 98.968C383.504 98.968 384.416 99.152 385.248 99.52C386.08 99.872 386.784 100.336 387.36 100.912L386.304 102.208C385.792 101.744 385.224 101.384 384.6 101.128C383.976 100.856 383.256 100.72 382.44 100.72C381.528 100.72 380.792 100.928 380.232 101.344C379.672 101.744 379.392 102.304 379.392 103.024C379.392 103.408 379.472 103.736 379.632 104.008C379.808 104.264 380.024 104.496 380.28 104.704C380.552 104.896 380.856 105.064 381.192 105.208C381.528 105.352 381.864 105.496 382.2 105.64L384.408 106.6C384.888 106.792 385.336 107.016 385.752 107.272C386.184 107.512 386.552 107.8 386.856 108.136C387.176 108.456 387.424 108.84 387.6 109.288C387.792 109.72 387.888 110.224 387.888 110.8C387.888 111.424 387.76 112.008 387.504 112.552C387.248 113.096 386.88 113.576 386.4 113.992C385.92 114.392 385.336 114.712 384.648 114.952C383.96 115.176 383.184 115.288 382.32 115.288Z" fill="black"/>
<line x1="489" y1="291.5" x2="276" y2="291.505" stroke="black"/>
<path d="M521.536 51L525.976 44.952L521.872 39.336H524.056L525.904 41.904C526.112 42.224 526.328 42.552 526.552 42.888C526.792 43.224 527.032 43.552 527.272 43.872H527.368C527.592 43.552 527.816 43.216 528.04 42.864C528.264 42.512 528.48 42.176 528.688 41.856L530.44 39.336H532.528L528.376 45.12L532.84 51H530.68L528.64 48.312C528.4 47.976 528.144 47.624 527.872 47.256C527.616 46.888 527.36 46.536 527.104 46.2H527.008C526.768 46.552 526.528 46.904 526.288 47.256C526.048 47.592 525.808 47.944 525.568 48.312L523.648 51H521.536ZM536.719 51V49.368H541.135V38.088H537.703V36.816C538.615 36.688 539.375 36.536 539.983 36.36C540.591 36.184 541.143 35.96 541.639 35.688H543.103V49.368H547.111V51H536.719ZM556.485 51.288C555.653 51.288 554.877 51.136 554.157 50.832C553.453 50.528 552.837 50.072 552.309 49.464C551.781 48.84 551.365 48.072 551.061 47.16C550.773 46.232 550.629 45.152 550.629 43.92C550.629 42.384 550.805 41.08 551.157 40.008C551.509 38.92 551.981 38.04 552.573 37.368C553.165 36.68 553.845 36.184 554.613 35.88C555.397 35.56 556.205 35.4 557.037 35.4C557.981 35.4 558.797 35.56 559.485 35.88C560.189 36.184 560.797 36.568 561.309 37.032L560.205 38.256C559.805 37.888 559.341 37.6 558.813 37.392C558.285 37.168 557.733 37.056 557.157 37.056C556.549 37.056 555.965 37.168 555.405 37.392C554.845 37.616 554.349 37.984 553.917 38.496C553.501 39.008 553.157 39.688 552.885 40.536C552.629 41.368 552.493 42.4 552.477 43.632C553.101 43.024 553.789 42.544 554.541 42.192C555.293 41.824 556.053 41.64 556.821 41.64C557.525 41.64 558.165 41.744 558.741 41.952C559.333 42.144 559.837 42.44 560.253 42.84C560.685 43.224 561.013 43.712 561.237 44.304C561.477 44.896 561.597 45.584 561.597 46.368C561.597 47.104 561.453 47.776 561.165 48.384C560.893 48.976 560.525 49.488 560.061 49.92C559.597 50.352 559.053 50.688 558.429 50.928C557.821 51.168 557.173 51.288 556.485 51.288ZM556.485 49.728C556.933 49.728 557.357 49.648 557.757 49.488C558.157 49.328 558.501 49.104 558.789 48.816C559.077 48.512 559.301 48.16 559.461 47.76C559.637 47.344 559.725 46.88 559.725 46.368C559.725 45.312 559.445 44.512 558.885 43.968C558.325 43.408 557.517 43.128 556.461 43.128C555.853 43.128 555.197 43.288 554.493 43.608C553.805 43.928 553.157 44.456 552.549 45.192C552.693 46.68 553.101 47.808 553.773 48.576C554.461 49.344 555.365 49.728 556.485 49.728Z" fill="black"/>
<path d="M520.536 112L524.976 105.952L520.872 100.336H523.056L524.904 102.904C525.112 103.224 525.328 103.552 525.552 103.888C525.792 104.224 526.032 104.552 526.272 104.872H526.368C526.592 104.552 526.816 104.216 527.04 103.864C527.264 103.512 527.48 103.176 527.688 102.856L529.44 100.336H531.528L527.376 106.12L531.84 112H529.68L527.64 109.312C527.4 108.976 527.144 108.624 526.872 108.256C526.616 107.888 526.36 107.536 526.104 107.2H526.008C525.768 107.552 525.528 107.904 525.288 108.256C525.048 108.592 524.808 108.944 524.568 109.312L522.648 112H520.536ZM540.639 112.288C539.775 112.288 538.991 112.184 538.287 111.976C537.599 111.768 537.015 111.48 536.535 111.112C536.055 110.728 535.679 110.28 535.407 109.768C535.151 109.256 535.023 108.696 535.023 108.088C535.023 107.56 535.119 107.088 535.311 106.672C535.503 106.256 535.751 105.88 536.055 105.544C536.359 105.208 536.703 104.92 537.087 104.68C537.487 104.424 537.895 104.2 538.311 104.008V103.912C537.671 103.512 537.119 103.024 536.655 102.448C536.207 101.856 535.983 101.152 535.983 100.336C535.983 99.744 536.095 99.208 536.319 98.728C536.559 98.248 536.887 97.84 537.303 97.504C537.735 97.152 538.239 96.88 538.815 96.688C539.391 96.496 540.023 96.4 540.711 96.4C541.463 96.4 542.127 96.504 542.703 96.712C543.295 96.904 543.791 97.184 544.191 97.552C544.607 97.904 544.919 98.336 545.127 98.848C545.351 99.344 545.463 99.888 545.463 100.48C545.463 101.2 545.231 101.88 544.767 102.52C544.319 103.144 543.775 103.68 543.135 104.128V104.224C543.551 104.432 543.943 104.656 544.311 104.896C544.679 105.136 544.999 105.408 545.271 105.712C545.543 106.016 545.751 106.376 545.895 106.792C546.055 107.192 546.135 107.664 546.135 108.208C546.135 108.784 546.007 109.32 545.751 109.816C545.511 110.312 545.159 110.744 544.695 111.112C544.231 111.48 543.655 111.768 542.967 111.976C542.295 112.184 541.519 112.288 540.639 112.288ZM541.839 103.648C543.119 102.72 543.759 101.696 543.759 100.576C543.759 99.808 543.495 99.168 542.967 98.656C542.439 98.128 541.671 97.864 540.663 97.864C539.799 97.864 539.103 98.088 538.575 98.536C538.047 98.984 537.783 99.584 537.783 100.336C537.783 100.8 537.887 101.2 538.095 101.536C538.303 101.856 538.591 102.144 538.959 102.4C539.327 102.656 539.751 102.888 540.231 103.096C540.727 103.288 541.263 103.472 541.839 103.648ZM540.687 110.824C541.839 110.824 542.719 110.576 543.327 110.08C543.935 109.584 544.239 108.936 544.239 108.136C544.239 107.608 544.111 107.168 543.855 106.816C543.615 106.448 543.279 106.136 542.847 105.88C542.415 105.624 541.903 105.4 541.311 105.208C540.735 105 540.111 104.784 539.439 104.56C538.687 104.976 538.063 105.448 537.567 105.976C537.071 106.488 536.823 107.128 536.823 107.896C536.823 108.76 537.167 109.464 537.855 110.008C538.559 110.552 539.503 110.824 540.687 110.824Z" fill="black"/>
<path d="M520.536 174L524.976 167.952L520.872 162.336H523.056L524.904 164.904C525.112 165.224 525.328 165.552 525.552 165.888C525.792 166.224 526.032 166.552 526.272 166.872H526.368C526.592 166.552 526.816 166.216 527.04 165.864C527.264 165.512 527.48 165.176 527.688 164.856L529.44 162.336H531.528L527.376 168.12L531.84 174H529.68L527.64 171.312C527.4 170.976 527.144 170.624 526.872 170.256C526.616 169.888 526.36 169.536 526.104 169.2H526.008C525.768 169.552 525.528 169.904 525.288 170.256C525.048 170.592 524.808 170.944 524.568 171.312L522.648 174H520.536ZM540.639 174.288C539.775 174.288 538.991 174.184 538.287 173.976C537.599 173.768 537.015 173.48 536.535 173.112C536.055 172.728 535.679 172.28 535.407 171.768C535.151 171.256 535.023 170.696 535.023 170.088C535.023 169.56 535.119 169.088 535.311 168.672C535.503 168.256 535.751 167.88 536.055 167.544C536.359 167.208 536.703 166.92 537.087 166.68C537.487 166.424 537.895 166.2 538.311 166.008V165.912C537.671 165.512 537.119 165.024 536.655 164.448C536.207 163.856 535.983 163.152 535.983 162.336C535.983 161.744 536.095 161.208 536.319 160.728C536.559 160.248 536.887 159.84 537.303 159.504C537.735 159.152 538.239 158.88 538.815 158.688C539.391 158.496 540.023 158.4 540.711 158.4C541.463 158.4 542.127 158.504 542.703 158.712C543.295 158.904 543.791 159.184 544.191 159.552C544.607 159.904 544.919 160.336 545.127 160.848C545.351 161.344 545.463 161.888 545.463 162.48C545.463 163.2 545.231 163.88 544.767 164.52C544.319 165.144 543.775 165.68 543.135 166.128V166.224C543.551 166.432 543.943 166.656 544.311 166.896C544.679 167.136 544.999 167.408 545.271 167.712C545.543 168.016 545.751 168.376 545.895 168.792C546.055 169.192 546.135 169.664 546.135 170.208C546.135 170.784 546.007 171.32 545.751 171.816C545.511 172.312 545.159 172.744 544.695 173.112C544.231 173.48 543.655 173.768 542.967 173.976C542.295 174.184 541.519 174.288 540.639 174.288ZM541.839 165.648C543.119 164.72 543.759 163.696 543.759 162.576C543.759 161.808 543.495 161.168 542.967 160.656C542.439 160.128 541.671 159.864 540.663 159.864C539.799 159.864 539.103 160.088 538.575 160.536C538.047 160.984 537.783 161.584 537.783 162.336C537.783 162.8 537.887 163.2 538.095 163.536C538.303 163.856 538.591 164.144 538.959 164.4C539.327 164.656 539.751 164.888 540.231 165.096C540.727 165.288 541.263 165.472 541.839 165.648ZM540.687 172.824C541.839 172.824 542.719 172.576 543.327 172.08C543.935 171.584 544.239 170.936 544.239 170.136C544.239 169.608 544.111 169.168 543.855 168.816C543.615 168.448 543.279 168.136 542.847 167.88C542.415 167.624 541.903 167.4 541.311 167.208C540.735 167 540.111 166.784 539.439 166.56C538.687 166.976 538.063 167.448 537.567 167.976C537.071 168.488 536.823 169.128 536.823 169.896C536.823 170.76 537.167 171.464 537.855 172.008C538.559 172.552 539.503 172.824 540.687 172.824Z" fill="black"/>
<path d="M521.536 234L525.976 227.952L521.872 222.336H524.056L525.904 224.904C526.112 225.224 526.328 225.552 526.552 225.888C526.792 226.224 527.032 226.552 527.272 226.872H527.368C527.592 226.552 527.816 226.216 528.04 225.864C528.264 225.512 528.48 225.176 528.688 224.856L530.44 222.336H532.528L528.376 228.12L532.84 234H530.68L528.64 231.312C528.4 230.976 528.144 230.624 527.872 230.256C527.616 229.888 527.36 229.536 527.104 229.2H527.008C526.768 229.552 526.528 229.904 526.288 230.256C526.048 230.592 525.808 230.944 525.568 231.312L523.648 234H521.536ZM543.223 234V229.776H535.327V228.456L542.983 218.688H545.095V228.192H547.471V229.776H545.095V234H543.223ZM537.511 228.192H543.223V223.44C543.239 223.024 543.255 222.576 543.271 222.096C543.287 221.6 543.311 221.144 543.343 220.728H543.223C542.983 221.096 542.727 221.472 542.455 221.856C542.183 222.224 541.919 222.592 541.663 222.96L537.511 228.192Z" fill="black"/>
<path d="M521.536 298L525.976 291.952L521.872 286.336H524.056L525.904 288.904C526.112 289.224 526.328 289.552 526.552 289.888C526.792 290.224 527.032 290.552 527.272 290.872H527.368C527.592 290.552 527.816 290.216 528.04 289.864C528.264 289.512 528.48 289.176 528.688 288.856L530.44 286.336H532.528L528.376 292.12L532.84 298H530.68L528.64 295.312C528.4 294.976 528.144 294.624 527.872 294.256C527.616 293.888 527.36 293.536 527.104 293.2H527.008C526.768 293.552 526.528 293.904 526.288 294.256C526.048 294.592 525.808 294.944 525.568 295.312L523.648 298H521.536ZM543.223 298V293.776H535.327V292.456L542.983 282.688H545.095V292.192H547.471V293.776H545.095V298H543.223ZM537.511 292.192H543.223V287.44C543.239 287.024 543.255 286.576 543.271 286.096C543.287 285.6 543.311 285.144 543.343 284.728H543.223C542.983 285.096 542.727 285.472 542.455 285.856C542.183 286.224 541.919 286.592 541.663 286.96L537.511 292.192Z" fill="black"/>
<path d="M521.536 362L525.976 355.952L521.872 350.336H524.056L525.904 352.904C526.112 353.224 526.328 353.552 526.552 353.888C526.792 354.224 527.032 354.552 527.272 354.872H527.368C527.592 354.552 527.816 354.216 528.04 353.864C528.264 353.512 528.48 353.176 528.688 352.856L530.44 350.336H532.528L528.376 356.12L532.84 362H530.68L528.64 359.312C528.4 358.976 528.144 358.624 527.872 358.256C527.616 357.888 527.36 357.536 527.104 357.2H527.008C526.768 357.552 526.528 357.904 526.288 358.256C526.048 358.592 525.808 358.944 525.568 359.312L523.648 362H521.536ZM543.223 362V357.776H535.327V356.456L542.983 346.688H545.095V356.192H547.471V357.776H545.095V362H543.223ZM537.511 356.192H543.223V351.44C543.239 351.024 543.255 350.576 543.271 350.096C543.287 349.6 543.311 349.144 543.343 348.728H543.223C542.983 349.096 542.727 349.472 542.455 349.856C542.183 350.224 541.919 350.592 541.663 350.96L537.511 356.192Z" fill="black"/>
<path d="M521.536 483L525.976 476.952L521.872 471.336H524.056L525.904 473.904C526.112 474.224 526.328 474.552 526.552 474.888C526.792 475.224 527.032 475.552 527.272 475.872H527.368C527.592 475.552 527.816 475.216 528.04 474.864C528.264 474.512 528.48 474.176 528.688 473.856L530.44 471.336H532.528L528.376 477.12L532.84 483H530.68L528.64 480.312C528.4 479.976 528.144 479.624 527.872 479.256C527.616 478.888 527.36 478.536 527.104 478.2H527.008C526.768 478.552 526.528 478.904 526.288 479.256C526.048 479.592 525.808 479.944 525.568 480.312L523.648 483H521.536ZM543.223 483V478.776H535.327V477.456L542.983 467.688H545.095V477.192H547.471V478.776H545.095V483H543.223ZM537.511 477.192H543.223V472.44C543.239 472.024 543.255 471.576 543.271 471.096C543.287 470.6 543.311 470.144 543.343 469.728H543.223C542.983 470.096 542.727 470.472 542.455 470.856C542.183 471.224 541.919 471.592 541.663 471.96L537.511 477.192Z" fill="black"/>
<path d="M521.536 548L525.976 541.952L521.872 536.336H524.056L525.904 538.904C526.112 539.224 526.328 539.552 526.552 539.888C526.792 540.224 527.032 540.552 527.272 540.872H527.368C527.592 540.552 527.816 540.216 528.04 539.864C528.264 539.512 528.48 539.176 528.688 538.856L530.44 536.336H532.528L528.376 542.12L532.84 548H530.68L528.64 545.312C528.4 544.976 528.144 544.624 527.872 544.256C527.616 543.888 527.36 543.536 527.104 543.2H527.008C526.768 543.552 526.528 543.904 526.288 544.256C526.048 544.592 525.808 544.944 525.568 545.312L523.648 548H521.536ZM543.223 548V543.776H535.327V542.456L542.983 532.688H545.095V542.192H547.471V543.776H545.095V548H543.223ZM537.511 542.192H543.223V537.44C543.239 537.024 543.255 536.576 543.271 536.096C543.287 535.6 543.311 535.144 543.343 534.728H543.223C542.983 535.096 542.727 535.472 542.455 535.856C542.183 536.224 541.919 536.592 541.663 536.96L537.511 542.192Z" fill="black"/>
<line x1="263" y1="223.5" x2="490" y2="223.5" stroke="black"/>
<circle cx="382" cy="288" r="25" fill="#C4C4C4"/>
<path d="M381.32 297.288C380.168 297.288 379.104 297.08 378.128 296.664C377.168 296.248 376.328 295.68 375.608 294.96L376.808 293.568C377.4 294.16 378.088 294.64 378.872 295.008C379.656 295.36 380.504 295.536 381.416 295.536C382.504 295.536 383.344 295.304 383.936 294.84C384.544 294.376 384.848 293.776 384.848 293.04C384.848 292.624 384.776 292.272 384.632 291.984C384.488 291.696 384.288 291.448 384.032 291.24C383.776 291.032 383.472 290.848 383.12 290.688C382.784 290.528 382.416 290.36 382.016 290.184L379.76 289.2C379.36 289.04 378.96 288.848 378.56 288.624C378.16 288.4 377.792 288.128 377.456 287.808C377.136 287.488 376.872 287.112 376.664 286.68C376.456 286.232 376.352 285.72 376.352 285.144C376.352 284.552 376.48 284 376.736 283.488C376.992 282.976 377.344 282.536 377.792 282.168C378.256 281.784 378.8 281.488 379.424 281.28C380.064 281.072 380.76 280.968 381.512 280.968C382.504 280.968 383.416 281.152 384.248 281.52C385.08 281.872 385.784 282.336 386.36 282.912L385.304 284.208C384.792 283.744 384.224 283.384 383.6 283.128C382.976 282.856 382.256 282.72 381.44 282.72C380.528 282.72 379.792 282.928 379.232 283.344C378.672 283.744 378.392 284.304 378.392 285.024C378.392 285.408 378.472 285.736 378.632 286.008C378.808 286.264 379.024 286.496 379.28 286.704C379.552 286.896 379.856 287.064 380.192 287.208C380.528 287.352 380.864 287.496 381.2 287.64L383.408 288.6C383.888 288.792 384.336 289.016 384.752 289.272C385.184 289.512 385.552 289.8 385.856 290.136C386.176 290.456 386.424 290.84 386.6 291.288C386.792 291.72 386.888 292.224 386.888 292.8C386.888 293.424 386.76 294.008 386.504 294.552C386.248 295.096 385.88 295.576 385.4 295.992C384.92 296.392 384.336 296.712 383.648 296.952C382.96 297.176 382.184 297.288 381.32 297.288Z" fill="black"/>
<rect y="202" width="276" height="52" fill="#C4C4C4"/>
<path d="M30.448 238V222.256H35.2C36.064 222.256 36.856 222.336 37.576 222.496C38.296 222.656 38.912 222.92 39.424 223.288C39.936 223.64 40.328 224.112 40.6 224.704C40.888 225.296 41.032 226.024 41.032 226.888C41.032 227.72 40.888 228.44 40.6 229.048C40.328 229.656 39.928 230.16 39.4 230.56C38.888 230.96 38.272 231.264 37.552 231.472C36.848 231.664 36.064 231.76 35.2 231.76H32.44V238H30.448ZM32.44 230.128H34.96C36.352 230.128 37.376 229.872 38.032 229.36C38.688 228.832 39.016 228.008 39.016 226.888C39.016 225.752 38.68 224.968 38.008 224.536C37.336 224.088 36.32 223.864 34.96 223.864H32.44V230.128ZM50.8146 238.288C49.8386 238.288 48.9346 238.104 48.1026 237.736C47.2706 237.368 46.5426 236.84 45.9186 236.152C45.3106 235.448 44.8306 234.592 44.4786 233.584C44.1266 232.56 43.9506 231.408 43.9506 230.128C43.9506 228.864 44.1266 227.728 44.4786 226.72C44.8306 225.712 45.3186 224.856 45.9426 224.152C46.5666 223.448 47.3106 222.912 48.1746 222.544C49.0386 222.16 49.9826 221.968 51.0066 221.968C51.9506 221.968 52.7826 222.16 53.5026 222.544C54.2386 222.928 54.8386 223.376 55.3026 223.888L54.1746 225.16C53.7586 224.728 53.2946 224.384 52.7826 224.128C52.2706 223.856 51.6786 223.72 51.0066 223.72C50.2546 223.72 49.5666 223.872 48.9426 224.176C48.3346 224.464 47.8146 224.888 47.3826 225.448C46.9506 225.992 46.6146 226.656 46.3746 227.44C46.1346 228.224 46.0146 229.104 46.0146 230.08C46.0146 231.072 46.1346 231.968 46.3746 232.768C46.6146 233.552 46.9506 234.224 47.3826 234.784C47.8146 235.344 48.3346 235.776 48.9426 236.08C49.5666 236.384 50.2546 236.536 51.0066 236.536C51.7266 236.536 52.3666 236.384 52.9266 236.08C53.5026 235.776 54.0466 235.344 54.5586 234.784L55.6866 236.008C55.0626 236.728 54.3586 237.288 53.5746 237.688C52.7906 238.088 51.8706 238.288 50.8146 238.288ZM59.0613 238V236.296H62.9733V223.936H59.0613V222.256H68.9012V223.936H64.9893V236.296H68.9012V238H59.0613ZM73.9079 238V222.256H83.6519V223.936H75.9239V228.88H82.4519V230.584H75.9239V236.296H83.8919V238H73.9079ZM86.8585 238L91.5625 229.864L87.1705 222.256H89.3785L91.5865 226.288C91.7945 226.656 91.9945 227.016 92.1865 227.368C92.3785 227.704 92.6025 228.104 92.8585 228.568H92.9545C93.1785 228.104 93.3705 227.704 93.5305 227.368C93.7065 227.016 93.8905 226.656 94.0825 226.288L96.2425 222.256H98.3545L93.9625 229.96L98.6665 238H96.4585L94.0825 233.752C93.8585 233.368 93.6345 232.976 93.4105 232.576C93.2025 232.16 92.9625 231.712 92.6905 231.232H92.5945C92.3705 231.712 92.1545 232.16 91.9465 232.576C91.7385 232.976 91.5305 233.368 91.3225 233.752L88.9705 238H86.8585ZM107.201 238.288C106.337 238.288 105.553 238.184 104.849 237.976C104.161 237.768 103.577 237.48 103.097 237.112C102.617 236.728 102.241 236.28 101.969 235.768C101.713 235.256 101.585 234.696 101.585 234.088C101.585 233.56 101.681 233.088 101.873 232.672C102.065 232.256 102.313 231.88 102.617 231.544C102.921 231.208 103.265 230.92 103.649 230.68C104.049 230.424 104.457 230.2 104.873 230.008V229.912C104.233 229.512 103.681 229.024 103.217 228.448C102.769 227.856 102.545 227.152 102.545 226.336C102.545 225.744 102.657 225.208 102.881 224.728C103.121 224.248 103.449 223.84 103.865 223.504C104.297 223.152 104.801 222.88 105.377 222.688C105.953 222.496 106.585 222.4 107.273 222.4C108.025 222.4 108.689 222.504 109.265 222.712C109.857 222.904 110.353 223.184 110.753 223.552C111.169 223.904 111.481 224.336 111.689 224.848C111.913 225.344 112.025 225.888 112.025 226.48C112.025 227.2 111.793 227.88 111.329 228.52C110.881 229.144 110.337 229.68 109.697 230.128V230.224C110.113 230.432 110.505 230.656 110.873 230.896C111.241 231.136 111.561 231.408 111.833 231.712C112.105 232.016 112.313 232.376 112.457 232.792C112.617 233.192 112.697 233.664 112.697 234.208C112.697 234.784 112.569 235.32 112.313 235.816C112.073 236.312 111.721 236.744 111.257 237.112C110.793 237.48 110.217 237.768 109.529 237.976C108.857 238.184 108.081 238.288 107.201 238.288ZM108.401 229.648C109.681 228.72 110.321 227.696 110.321 226.576C110.321 225.808 110.057 225.168 109.529 224.656C109.001 224.128 108.233 223.864 107.225 223.864C106.361 223.864 105.665 224.088 105.137 224.536C104.609 224.984 104.345 225.584 104.345 226.336C104.345 226.8 104.449 227.2 104.657 227.536C104.865 227.856 105.153 228.144 105.521 228.4C105.889 228.656 106.313 228.888 106.793 229.096C107.289 229.288 107.825 229.472 108.401 229.648ZM107.249 236.824C108.401 236.824 109.281 236.576 109.889 236.08C110.497 235.584 110.801 234.936 110.801 234.136C110.801 233.608 110.673 233.168 110.417 232.816C110.177 232.448 109.841 232.136 109.409 231.88C108.977 231.624 108.465 231.4 107.873 231.208C107.297 231 106.673 230.784 106.001 230.56C105.249 230.976 104.625 231.448 104.129 231.976C103.633 232.488 103.385 233.128 103.385 233.896C103.385 234.76 103.729 235.464 104.417 236.008C105.121 236.552 106.065 236.824 107.249 236.824ZM122.216 238L122.816 233.104H119.648L119.048 238H117.752L118.352 233.104H116.432V231.736H118.52L118.952 228.184H116.912V226.792H119.12L119.672 222.4H120.944L120.416 226.792H123.584L124.136 222.4H125.408L124.88 226.792H126.8V228.184H124.712L124.28 231.736H126.32V233.104H124.112L123.512 238H122.216ZM122.984 231.736L123.416 228.184H120.248L119.816 231.736H122.984ZM137.566 238V233.776H129.67V232.456L137.326 222.688H139.438V232.192H141.814V233.776H139.438V238H137.566ZM131.854 232.192H137.566V227.44C137.582 227.024 137.598 226.576 137.614 226.096C137.63 225.6 137.654 225.144 137.686 224.728H137.566C137.326 225.096 137.07 225.472 136.798 225.856C136.526 226.224 136.262 226.592 136.006 226.96L131.854 232.192Z" fill="black"/>
</svg>
