<svg width="856" height="586" viewBox="0 0 856 586" fill="none" xmlns="http://www.w3.org/2000/svg">
<rect x="490" y="1" width="365" height="398" stroke="black" stroke-opacity="0.2" stroke-width="2"/>
<rect x="490" y="428" width="365" height="157" stroke="black" stroke-opacity="0.2" stroke-width="2"/>
<rect y="79" width="276" height="52" fill="#C4C4C4"/>
<path d="M30.448 115V99.256H35.2C36.064 99.256 36.856 99.336 37.576 99.496C38.296 99.656 38.912 99.92 39.424 100.288C39.936 100.64 40.328 101.112 40.6 101.704C40.888 102.296 41.032 103.024 41.032 103.888C41.032 104.72 40.888 105.44 40.6 106.048C40.328 106.656 39.928 107.16 39.4 107.56C38.888 107.96 38.272 108.264 37.552 108.472C36.848 108.664 36.064 108.76 35.2 108.76H32.44V115H30.448ZM32.44 107.128H34.96C36.352 107.128 37.376 106.872 38.032 106.36C38.688 105.832 39.016 105.008 39.016 103.888C39.016 102.752 38.68 101.968 38.008 101.536C37.336 101.088 36.32 100.864 34.96 100.864H32.44V107.128ZM50.8146 115.288C49.8386 115.288 48.9346 115.104 48.1026 114.736C47.2706 114.368 46.5426 113.84 45.9186 113.152C45.3106 112.448 44.8306 111.592 44.4786 110.584C44.1266 109.56 43.9506 108.408 43.9506 107.128C43.9506 105.864 44.1266 104.728 44.4786 103.72C44.8306 102.712 45.3186 101.856 45.9426 101.152C46.5666 100.448 47.3106 99.912 48.1746 99.544C49.0386 99.16 49.9826 98.968 51.0066 98.968C51.9506 98.968 52.7826 99.16 53.5026 99.544C54.2386 99.928 54.8386 100.376 55.3026 100.888L54.1746 102.16C53.7586 101.728 53.2946 101.384 52.7826 101.128C52.2706 100.856 51.6786 100.72 51.0066 100.72C50.2546 100.72 49.5666 100.872 48.9426 101.176C48.3346 101.464 47.8146 101.888 47.3826 102.448C46.9506 102.992 46.6146 103.656 46.3746 104.44C46.1346 105.224 46.0146 106.104 46.0146 107.08C46.0146 108.072 46.1346 108.968 46.3746 109.768C46.6146 110.552 46.9506 111.224 47.3826 111.784C47.8146 112.344 48.3346 112.776 48.9426 113.08C49.5666 113.384 50.2546 113.536 51.0066 113.536C51.7266 113.536 52.3666 113.384 52.9266 113.08C53.5026 112.776 54.0466 112.344 54.5586 111.784L55.6866 113.008C55.0626 113.728 54.3586 114.288 53.5746 114.688C52.7906 115.088 51.8706 115.288 50.8146 115.288ZM59.0613 115V113.296H62.9733V100.936H59.0613V99.256H68.9012V100.936H64.9893V113.296H68.9012V115H59.0613ZM73.9079 115V99.256H83.6519V100.936H75.9239V105.88H82.4519V107.584H75.9239V113.296H83.8919V115H73.9079ZM86.8585 115L91.5625 106.864L87.1705 99.256H89.3785L91.5865 103.288C91.7945 103.656 91.9945 104.016 92.1865 104.368C92.3785 104.704 92.6025 105.104 92.8585 105.568H92.9545C93.1785 105.104 93.3705 104.704 93.5305 104.368C93.7065 104.016 93.8905 103.656 94.0825 103.288L96.2425 99.256H98.3545L93.9625 106.96L98.6665 115H96.4585L94.0825 110.752C93.8585 110.368 93.6345 109.976 93.4105 109.576C93.2025 109.16 92.9625 108.712 92.6905 108.232H92.5945C92.3705 108.712 92.1545 109.16 91.9465 109.576C91.7385 109.976 91.5305 110.368 91.3225 110.752L88.9705 115H86.8585ZM102.281 115V113.368H106.697V102.088H103.265V100.816C104.177 100.688 104.937 100.536 105.545 100.36C106.153 100.184 106.705 99.96 107.201 99.688H108.665V113.368H112.673V115H102.281ZM122.048 115.288C121.216 115.288 120.44 115.136 119.72 114.832C119.016 114.528 118.4 114.072 117.872 113.464C117.344 112.84 116.928 112.072 116.624 111.16C116.336 110.232 116.192 109.152 116.192 107.92C116.192 106.384 116.368 105.08 116.72 104.008C117.072 102.92 117.544 102.04 118.136 101.368C118.728 100.68 119.408 100.184 120.176 99.88C120.96 99.56 121.768 99.4 122.6 99.4C123.544 99.4 124.36 99.56 125.048 99.88C125.752 100.184 126.36 100.568 126.872 101.032L125.768 102.256C125.368 101.888 124.904 101.6 124.376 101.392C123.848 101.168 123.296 101.056 122.72 101.056C122.112 101.056 121.528 101.168 120.968 101.392C120.408 101.616 119.912 101.984 119.48 102.496C119.064 103.008 118.72 103.688 118.448 104.536C118.192 105.368 118.056 106.4 118.04 107.632C118.664 107.024 119.352 106.544 120.104 106.192C120.856 105.824 121.616 105.64 122.384 105.64C123.088 105.64 123.728 105.744 124.304 105.952C124.896 106.144 125.4 106.44 125.816 106.84C126.248 107.224 126.576 107.712 126.8 108.304C127.04 108.896 127.16 109.584 127.16 110.368C127.16 111.104 127.016 111.776 126.728 112.384C126.456 112.976 126.088 113.488 125.624 113.92C125.16 114.352 124.616 114.688 123.992 114.928C123.384 115.168 122.736 115.288 122.048 115.288ZM122.048 113.728C122.496 113.728 122.92 113.648 123.32 113.488C123.72 113.328 124.064 113.104 124.352 112.816C124.64 112.512 124.864 112.16 125.024 111.76C125.2 111.344 125.288 110.88 125.288 110.368C125.288 109.312 125.008 108.512 124.448 107.968C123.888 107.408 123.08 107.128 122.024 107.128C121.416 107.128 120.76 107.288 120.056 107.608C119.368 107.928 118.72 108.456 118.112 109.192C118.256 110.68 118.664 111.808 119.336 112.576C120.024 113.344 120.928 113.728 122.048 113.728ZM131.11 118.84L138.982 97.96H140.758L132.886 118.84H131.11ZM144.421 115L149.125 106.864L144.733 99.256H146.941L149.149 103.288C149.357 103.656 149.557 104.016 149.749 104.368C149.941 104.704 150.165 105.104 150.421 105.568H150.517C150.741 105.104 150.933 104.704 151.093 104.368C151.269 104.016 151.453 103.656 151.645 103.288L153.805 99.256H155.917L151.525 106.96L156.229 115H154.021L151.645 110.752C151.421 110.368 151.197 109.976 150.973 109.576C150.765 109.16 150.525 108.712 150.253 108.232H150.157C149.933 108.712 149.717 109.16 149.509 109.576C149.301 109.976 149.093 110.368 148.885 110.752L146.533 115H144.421ZM164.764 115.288C163.9 115.288 163.116 115.184 162.412 114.976C161.724 114.768 161.14 114.48 160.66 114.112C160.18 113.728 159.804 113.28 159.532 112.768C159.276 112.256 159.148 111.696 159.148 111.088C159.148 110.56 159.244 110.088 159.436 109.672C159.628 109.256 159.876 108.88 160.18 108.544C160.484 108.208 160.828 107.92 161.212 107.68C161.612 107.424 162.02 107.2 162.436 107.008V106.912C161.796 106.512 161.244 106.024 160.78 105.448C160.332 104.856 160.108 104.152 160.108 103.336C160.108 102.744 160.22 102.208 160.444 101.728C160.684 101.248 161.012 100.84 161.428 100.504C161.86 100.152 162.364 99.88 162.94 99.688C163.516 99.496 164.148 99.4 164.836 99.4C165.588 99.4 166.252 99.504 166.828 99.712C167.42 99.904 167.916 100.184 168.316 100.552C168.732 100.904 169.044 101.336 169.252 101.848C169.476 102.344 169.588 102.888 169.588 103.48C169.588 104.2 169.356 104.88 168.892 105.52C168.444 106.144 167.9 106.68 167.26 107.128V107.224C167.676 107.432 168.068 107.656 168.436 107.896C168.804 108.136 169.124 108.408 169.396 108.712C169.668 109.016 169.876 109.376 170.02 109.792C170.18 110.192 170.26 110.664 170.26 111.208C170.26 111.784 170.132 112.32 169.876 112.816C169.636 113.312 169.284 113.744 168.82 114.112C168.356 114.48 167.78 114.768 167.092 114.976C166.42 115.184 165.644 115.288 164.764 115.288ZM165.964 106.648C167.244 105.72 167.884 104.696 167.884 103.576C167.884 102.808 167.62 102.168 167.092 101.656C166.564 101.128 165.796 100.864 164.788 100.864C163.924 100.864 163.228 101.088 162.7 101.536C162.172 101.984 161.908 102.584 161.908 103.336C161.908 103.8 162.012 104.2 162.22 104.536C162.428 104.856 162.716 105.144 163.084 105.4C163.452 105.656 163.876 105.888 164.356 106.096C164.852 106.288 165.388 106.472 165.964 106.648ZM164.812 113.824C165.964 113.824 166.844 113.576 167.452 113.08C168.06 112.584 168.364 111.936 168.364 111.136C168.364 110.608 168.236 110.168 167.98 109.816C167.74 109.448 167.404 109.136 166.972 108.88C166.54 108.624 166.028 108.4 165.436 108.208C164.86 108 164.236 107.784 163.564 107.56C162.812 107.976 162.188 108.448 161.692 108.976C161.196 109.488 160.948 110.128 160.948 110.896C160.948 111.76 161.292 112.464 161.98 113.008C162.684 113.552 163.628 113.824 164.812 113.824ZM179.778 115L180.378 110.104H177.21L176.61 115H175.314L175.914 110.104H173.994V108.736H176.082L176.514 105.184H174.474V103.792H176.682L177.234 99.4H178.506L177.978 103.792H181.146L181.698 99.4H182.97L182.442 103.792H184.362V105.184H182.274L181.842 108.736H183.882V110.104H181.674L181.074 115H179.778ZM180.546 108.736L180.978 105.184H177.81L177.378 108.736H180.546ZM188.049 115V113.824C189.345 112.672 190.489 111.632 191.481 110.704C192.489 109.776 193.329 108.928 194.001 108.16C194.689 107.376 195.209 106.648 195.561 105.976C195.913 105.304 196.089 104.648 196.089 104.008C196.089 103.128 195.817 102.408 195.273 101.848C194.729 101.288 193.889 101.008 192.753 101.008C192.033 101.008 191.361 101.192 190.737 101.56C190.129 101.912 189.577 102.344 189.081 102.856L187.953 101.728C188.641 101.024 189.377 100.464 190.161 100.048C190.961 99.616 191.905 99.4 192.993 99.4C193.761 99.4 194.449 99.512 195.057 99.736C195.681 99.944 196.209 100.248 196.641 100.648C197.073 101.032 197.401 101.504 197.625 102.064C197.865 102.624 197.985 103.24 197.985 103.912C197.985 104.632 197.809 105.36 197.457 106.096C197.121 106.816 196.641 107.568 196.017 108.352C195.393 109.12 194.649 109.928 193.785 110.776C192.921 111.608 191.969 112.496 190.929 113.44C191.409 113.408 191.889 113.376 192.369 113.344C192.849 113.312 193.321 113.296 193.785 113.296H198.825V115H188.049Z" fill="black"/>
<rect y="141" width="276" height="52" fill="#C4C4C4"/>
<path d="M30.448 177V161.256H35.2C36.064 161.256 36.856 161.336 37.576 161.496C38.296 161.656 38.912 161.92 39.424 162.288C39.936 162.64 40.328 163.112 40.6 163.704C40.888 164.296 41.032 165.024 41.032 165.888C41.032 166.72 40.888 167.44 40.6 168.048C40.328 168.656 39.928 169.16 39.4 169.56C38.888 169.96 38.272 170.264 37.552 170.472C36.848 170.664 36.064 170.76 35.2 170.76H32.44V177H30.448ZM32.44 169.128H34.96C36.352 169.128 37.376 168.872 38.032 168.36C38.688 167.832 39.016 167.008 39.016 165.888C39.016 164.752 38.68 163.968 38.008 163.536C37.336 163.088 36.32 162.864 34.96 162.864H32.44V169.128ZM50.8146 177.288C49.8386 177.288 48.9346 177.104 48.1026 176.736C47.2706 176.368 46.5426 175.84 45.9186 175.152C45.3106 174.448 44.8306 173.592 44.4786 172.584C44.1266 171.56 43.9506 170.408 43.9506 169.128C43.9506 167.864 44.1266 166.728 44.4786 165.72C44.8306 164.712 45.3186 163.856 45.9426 163.152C46.5666 162.448 47.3106 161.912 48.1746 161.544C49.0386 161.16 49.9826 160.968 51.0066 160.968C51.9506 160.968 52.7826 161.16 53.5026 161.544C54.2386 161.928 54.8386 162.376 55.3026 162.888L54.1746 164.16C53.7586 163.728 53.2946 163.384 52.7826 163.128C52.2706 162.856 51.6786 162.72 51.0066 162.72C50.2546 162.72 49.5666 162.872 48.9426 163.176C48.3346 163.464 47.8146 163.888 47.3826 164.448C46.9506 164.992 46.6146 165.656 46.3746 166.44C46.1346 167.224 46.0146 168.104 46.0146 169.08C46.0146 170.072 46.1346 170.968 46.3746 171.768C46.6146 172.552 46.9506 173.224 47.3826 173.784C47.8146 174.344 48.3346 174.776 48.9426 175.08C49.5666 175.384 50.2546 175.536 51.0066 175.536C51.7266 175.536 52.3666 175.384 52.9266 175.08C53.5026 174.776 54.0466 174.344 54.5586 173.784L55.6866 175.008C55.0626 175.728 54.3586 176.288 53.5746 176.688C52.7906 177.088 51.8706 177.288 50.8146 177.288ZM59.0613 177V175.296H62.9733V162.936H59.0613V161.256H68.9012V162.936H64.9893V175.296H68.9012V177H59.0613ZM73.9079 177V161.256H83.6519V162.936H75.9239V167.88H82.4519V169.584H75.9239V175.296H83.8919V177H73.9079ZM86.8585 177L91.5625 168.864L87.1705 161.256H89.3785L91.5865 165.288C91.7945 165.656 91.9945 166.016 92.1865 166.368C92.3785 166.704 92.6025 167.104 92.8585 167.568H92.9545C93.1785 167.104 93.3705 166.704 93.5305 166.368C93.7065 166.016 93.8905 165.656 94.0825 165.288L96.2425 161.256H98.3545L93.9625 168.96L98.6665 177H96.4585L94.0825 172.752C93.8585 172.368 93.6345 171.976 93.4105 171.576C93.2025 171.16 92.9625 170.712 92.6905 170.232H92.5945C92.3705 170.712 92.1545 171.16 91.9465 171.576C91.7385 171.976 91.5305 172.368 91.3225 172.752L88.9705 177H86.8585ZM102.281 177V175.368H106.697V164.088H103.265V162.816C104.177 162.688 104.937 162.536 105.545 162.36C106.153 162.184 106.705 161.96 107.201 161.688H108.665V175.368H112.673V177H102.281ZM122.048 177.288C121.216 177.288 120.44 177.136 119.72 176.832C119.016 176.528 118.4 176.072 117.872 175.464C117.344 174.84 116.928 174.072 116.624 173.16C116.336 172.232 116.192 171.152 116.192 169.92C116.192 168.384 116.368 167.08 116.72 166.008C117.072 164.92 117.544 164.04 118.136 163.368C118.728 162.68 119.408 162.184 120.176 161.88C120.96 161.56 121.768 161.4 122.6 161.4C123.544 161.4 124.36 161.56 125.048 161.88C125.752 162.184 126.36 162.568 126.872 163.032L125.768 164.256C125.368 163.888 124.904 163.6 124.376 163.392C123.848 163.168 123.296 163.056 122.72 163.056C122.112 163.056 121.528 163.168 120.968 163.392C120.408 163.616 119.912 163.984 119.48 164.496C119.064 165.008 118.72 165.688 118.448 166.536C118.192 167.368 118.056 168.4 118.04 169.632C118.664 169.024 119.352 168.544 120.104 168.192C120.856 167.824 121.616 167.64 122.384 167.64C123.088 167.64 123.728 167.744 124.304 167.952C124.896 168.144 125.4 168.44 125.816 168.84C126.248 169.224 126.576 169.712 126.8 170.304C127.04 170.896 127.16 171.584 127.16 172.368C127.16 173.104 127.016 173.776 126.728 174.384C126.456 174.976 126.088 175.488 125.624 175.92C125.16 176.352 124.616 176.688 123.992 176.928C123.384 177.168 122.736 177.288 122.048 177.288ZM122.048 175.728C122.496 175.728 122.92 175.648 123.32 175.488C123.72 175.328 124.064 175.104 124.352 174.816C124.64 174.512 124.864 174.16 125.024 173.76C125.2 173.344 125.288 172.88 125.288 172.368C125.288 171.312 125.008 170.512 124.448 169.968C123.888 169.408 123.08 169.128 122.024 169.128C121.416 169.128 120.76 169.288 120.056 169.608C119.368 169.928 118.72 170.456 118.112 171.192C118.256 172.68 118.664 173.808 119.336 174.576C120.024 175.344 120.928 175.728 122.048 175.728ZM131.11 180.84L138.982 159.96H140.758L132.886 180.84H131.11ZM144.421 177L149.125 168.864L144.733 161.256H146.941L149.149 165.288C149.357 165.656 149.557 166.016 149.749 166.368C149.941 166.704 150.165 167.104 150.421 167.568H150.517C150.741 167.104 150.933 166.704 151.093 166.368C151.269 166.016 151.453 165.656 151.645 165.288L153.805 161.256H155.917L151.525 168.96L156.229 177H154.021L151.645 172.752C151.421 172.368 151.197 171.976 150.973 171.576C150.765 171.16 150.525 170.712 150.253 170.232H150.157C149.933 170.712 149.717 171.16 149.509 171.576C149.301 171.976 149.093 172.368 148.885 172.752L146.533 177H144.421ZM164.764 177.288C163.9 177.288 163.116 177.184 162.412 176.976C161.724 176.768 161.14 176.48 160.66 176.112C160.18 175.728 159.804 175.28 159.532 174.768C159.276 174.256 159.148 173.696 159.148 173.088C159.148 172.56 159.244 172.088 159.436 171.672C159.628 171.256 159.876 170.88 160.18 170.544C160.484 170.208 160.828 169.92 161.212 169.68C161.612 169.424 162.02 169.2 162.436 169.008V168.912C161.796 168.512 161.244 168.024 160.78 167.448C160.332 166.856 160.108 166.152 160.108 165.336C160.108 164.744 160.22 164.208 160.444 163.728C160.684 163.248 161.012 162.84 161.428 162.504C161.86 162.152 162.364 161.88 162.94 161.688C163.516 161.496 164.148 161.4 164.836 161.4C165.588 161.4 166.252 161.504 166.828 161.712C167.42 161.904 167.916 162.184 168.316 162.552C168.732 162.904 169.044 163.336 169.252 163.848C169.476 164.344 169.588 164.888 169.588 165.48C169.588 166.2 169.356 166.88 168.892 167.52C168.444 168.144 167.9 168.68 167.26 169.128V169.224C167.676 169.432 168.068 169.656 168.436 169.896C168.804 170.136 169.124 170.408 169.396 170.712C169.668 171.016 169.876 171.376 170.02 171.792C170.18 172.192 170.26 172.664 170.26 173.208C170.26 173.784 170.132 174.32 169.876 174.816C169.636 175.312 169.284 175.744 168.82 176.112C168.356 176.48 167.78 176.768 167.092 176.976C166.42 177.184 165.644 177.288 164.764 177.288ZM165.964 168.648C167.244 167.72 167.884 166.696 167.884 165.576C167.884 164.808 167.62 164.168 167.092 163.656C166.564 163.128 165.796 162.864 164.788 162.864C163.924 162.864 163.228 163.088 162.7 163.536C162.172 163.984 161.908 164.584 161.908 165.336C161.908 165.8 162.012 166.2 162.22 166.536C162.428 166.856 162.716 167.144 163.084 167.4C163.452 167.656 163.876 167.888 164.356 168.096C164.852 168.288 165.388 168.472 165.964 168.648ZM164.812 175.824C165.964 175.824 166.844 175.576 167.452 175.08C168.06 174.584 168.364 173.936 168.364 173.136C168.364 172.608 168.236 172.168 167.98 171.816C167.74 171.448 167.404 171.136 166.972 170.88C166.54 170.624 166.028 170.4 165.436 170.208C164.86 170 164.236 169.784 163.564 169.56C162.812 169.976 162.188 170.448 161.692 170.976C161.196 171.488 160.948 172.128 160.948 172.896C160.948 173.76 161.292 174.464 161.98 175.008C162.684 175.552 163.628 175.824 164.812 175.824ZM179.778 177L180.378 172.104H177.21L176.61 177H175.314L175.914 172.104H173.994V170.736H176.082L176.514 167.184H174.474V165.792H176.682L177.234 161.4H178.506L177.978 165.792H181.146L181.698 161.4H182.97L182.442 165.792H184.362V167.184H182.274L181.842 170.736H183.882V172.104H181.674L181.074 177H179.778ZM180.546 170.736L180.978 167.184H177.81L177.378 170.736H180.546ZM193.185 177.288C191.857 177.288 190.745 177.072 189.849 176.64C188.953 176.192 188.225 175.688 187.665 175.128L188.673 173.832C189.185 174.312 189.793 174.736 190.497 175.104C191.217 175.472 192.073 175.656 193.065 175.656C193.593 175.656 194.081 175.592 194.529 175.464C194.977 175.32 195.361 175.128 195.681 174.888C196.017 174.648 196.273 174.36 196.449 174.024C196.641 173.672 196.737 173.28 196.737 172.848C196.737 172.4 196.633 171.992 196.425 171.624C196.233 171.24 195.913 170.912 195.465 170.64C195.017 170.368 194.441 170.16 193.737 170.016C193.033 169.872 192.177 169.8 191.169 169.8V168.288C192.081 168.288 192.849 168.216 193.473 168.072C194.113 167.928 194.633 167.728 195.033 167.472C195.433 167.216 195.721 166.912 195.897 166.56C196.089 166.208 196.185 165.832 196.185 165.432C196.185 164.68 195.897 164.088 195.321 163.656C194.761 163.224 194.009 163.008 193.065 163.008C192.345 163.008 191.665 163.152 191.025 163.44C190.385 163.728 189.809 164.104 189.297 164.568L188.241 163.32C188.881 162.76 189.609 162.304 190.425 161.952C191.241 161.584 192.145 161.4 193.137 161.4C193.857 161.4 194.521 161.488 195.129 161.664C195.753 161.84 196.289 162.096 196.737 162.432C197.201 162.752 197.561 163.152 197.817 163.632C198.073 164.112 198.201 164.664 198.201 165.288C198.201 166.216 197.897 166.976 197.289 167.568C196.681 168.16 195.897 168.616 194.937 168.936V169.032C195.449 169.144 195.929 169.312 196.377 169.536C196.841 169.744 197.249 170.016 197.601 170.352C197.953 170.672 198.225 171.048 198.417 171.48C198.625 171.912 198.729 172.392 198.729 172.92C198.729 173.592 198.585 174.2 198.297 174.744C198.009 175.288 197.609 175.752 197.097 176.136C196.601 176.504 196.017 176.792 195.345 177C194.673 177.192 193.953 177.288 193.185 177.288Z" fill="black"/>
<rect y="203" width="276" height="52" fill="#C4C4C4"/>
<path d="M30.448 239V223.256H35.2C36.064 223.256 36.856 223.336 37.576 223.496C38.296 223.656 38.912 223.92 39.424 224.288C39.936 224.64 40.328 225.112 40.6 225.704C40.888 226.296 41.032 227.024 41.032 227.888C41.032 228.72 40.888 229.44 40.6 230.048C40.328 230.656 39.928 231.16 39.4 231.56C38.888 231.96 38.272 232.264 37.552 232.472C36.848 232.664 36.064 232.76 35.2 232.76H32.44V239H30.448ZM32.44 231.128H34.96C36.352 231.128 37.376 230.872 38.032 230.36C38.688 229.832 39.016 229.008 39.016 227.888C39.016 226.752 38.68 225.968 38.008 225.536C37.336 225.088 36.32 224.864 34.96 224.864H32.44V231.128ZM50.8146 239.288C49.8386 239.288 48.9346 239.104 48.1026 238.736C47.2706 238.368 46.5426 237.84 45.9186 237.152C45.3106 236.448 44.8306 235.592 44.4786 234.584C44.1266 233.56 43.9506 232.408 43.9506 231.128C43.9506 229.864 44.1266 228.728 44.4786 227.72C44.8306 226.712 45.3186 225.856 45.9426 225.152C46.5666 224.448 47.3106 223.912 48.1746 223.544C49.0386 223.16 49.9826 222.968 51.0066 222.968C51.9506 222.968 52.7826 223.16 53.5026 223.544C54.2386 223.928 54.8386 224.376 55.3026 224.888L54.1746 226.16C53.7586 225.728 53.2946 225.384 52.7826 225.128C52.2706 224.856 51.6786 224.72 51.0066 224.72C50.2546 224.72 49.5666 224.872 48.9426 225.176C48.3346 225.464 47.8146 225.888 47.3826 226.448C46.9506 226.992 46.6146 227.656 46.3746 228.44C46.1346 229.224 46.0146 230.104 46.0146 231.08C46.0146 232.072 46.1346 232.968 46.3746 233.768C46.6146 234.552 46.9506 235.224 47.3826 235.784C47.8146 236.344 48.3346 236.776 48.9426 237.08C49.5666 237.384 50.2546 237.536 51.0066 237.536C51.7266 237.536 52.3666 237.384 52.9266 237.08C53.5026 236.776 54.0466 236.344 54.5586 235.784L55.6866 237.008C55.0626 237.728 54.3586 238.288 53.5746 238.688C52.7906 239.088 51.8706 239.288 50.8146 239.288ZM59.0613 239V237.296H62.9733V224.936H59.0613V223.256H68.9012V224.936H64.9893V237.296H68.9012V239H59.0613ZM73.9079 239V223.256H83.6519V224.936H75.9239V229.88H82.4519V231.584H75.9239V237.296H83.8919V239H73.9079ZM86.8585 239L91.5625 230.864L87.1705 223.256H89.3785L91.5865 227.288C91.7945 227.656 91.9945 228.016 92.1865 228.368C92.3785 228.704 92.6025 229.104 92.8585 229.568H92.9545C93.1785 229.104 93.3705 228.704 93.5305 228.368C93.7065 228.016 93.8905 227.656 94.0825 227.288L96.2425 223.256H98.3545L93.9625 230.96L98.6665 239H96.4585L94.0825 234.752C93.8585 234.368 93.6345 233.976 93.4105 233.576C93.2025 233.16 92.9625 232.712 92.6905 232.232H92.5945C92.3705 232.712 92.1545 233.16 91.9465 233.576C91.7385 233.976 91.5305 234.368 91.3225 234.752L88.9705 239H86.8585ZM107.201 239.288C106.337 239.288 105.553 239.184 104.849 238.976C104.161 238.768 103.577 238.48 103.097 238.112C102.617 237.728 102.241 237.28 101.969 236.768C101.713 236.256 101.585 235.696 101.585 235.088C101.585 234.56 101.681 234.088 101.873 233.672C102.065 233.256 102.313 232.88 102.617 232.544C102.921 232.208 103.265 231.92 103.649 231.68C104.049 231.424 104.457 231.2 104.873 231.008V230.912C104.233 230.512 103.681 230.024 103.217 229.448C102.769 228.856 102.545 228.152 102.545 227.336C102.545 226.744 102.657 226.208 102.881 225.728C103.121 225.248 103.449 224.84 103.865 224.504C104.297 224.152 104.801 223.88 105.377 223.688C105.953 223.496 106.585 223.4 107.273 223.4C108.025 223.4 108.689 223.504 109.265 223.712C109.857 223.904 110.353 224.184 110.753 224.552C111.169 224.904 111.481 225.336 111.689 225.848C111.913 226.344 112.025 226.888 112.025 227.48C112.025 228.2 111.793 228.88 111.329 229.52C110.881 230.144 110.337 230.68 109.697 231.128V231.224C110.113 231.432 110.505 231.656 110.873 231.896C111.241 232.136 111.561 232.408 111.833 232.712C112.105 233.016 112.313 233.376 112.457 233.792C112.617 234.192 112.697 234.664 112.697 235.208C112.697 235.784 112.569 236.32 112.313 236.816C112.073 237.312 111.721 237.744 111.257 238.112C110.793 238.48 110.217 238.768 109.529 238.976C108.857 239.184 108.081 239.288 107.201 239.288ZM108.401 230.648C109.681 229.72 110.321 228.696 110.321 227.576C110.321 226.808 110.057 226.168 109.529 225.656C109.001 225.128 108.233 224.864 107.225 224.864C106.361 224.864 105.665 225.088 105.137 225.536C104.609 225.984 104.345 226.584 104.345 227.336C104.345 227.8 104.449 228.2 104.657 228.536C104.865 228.856 105.153 229.144 105.521 229.4C105.889 229.656 106.313 229.888 106.793 230.096C107.289 230.288 107.825 230.472 108.401 230.648ZM107.249 237.824C108.401 237.824 109.281 237.576 109.889 237.08C110.497 236.584 110.801 235.936 110.801 235.136C110.801 234.608 110.673 234.168 110.417 233.816C110.177 233.448 109.841 233.136 109.409 232.88C108.977 232.624 108.465 232.4 107.873 232.208C107.297 232 106.673 231.784 106.001 231.56C105.249 231.976 104.625 232.448 104.129 232.976C103.633 233.488 103.385 234.128 103.385 234.896C103.385 235.76 103.729 236.464 104.417 237.008C105.121 237.552 106.065 237.824 107.249 237.824ZM122.216 239L122.816 234.104H119.648L119.048 239H117.752L118.352 234.104H116.432V232.736H118.52L118.952 229.184H116.912V227.792H119.12L119.672 223.4H120.944L120.416 227.792H123.584L124.136 223.4H125.408L124.88 227.792H126.8V229.184H124.712L124.28 232.736H126.32V234.104H124.112L123.512 239H122.216ZM122.984 232.736L123.416 229.184H120.248L119.816 232.736H122.984ZM137.566 239V234.776H129.67V233.456L137.326 223.688H139.438V233.192H141.814V234.776H139.438V239H137.566ZM131.854 233.192H137.566V228.44C137.582 228.024 137.598 227.576 137.614 227.096C137.63 226.6 137.654 226.144 137.686 225.728H137.566C137.326 226.096 137.07 226.472 136.798 226.856C136.526 227.224 136.262 227.592 136.006 227.96L131.854 233.192Z" fill="black"/>
<rect x="123" y="265" width="152.851" height="52" fill="#C4C4C4"/>
<path d="M145.088 301V285.256H148.976C151.36 285.256 153.168 285.928 154.4 287.272C155.648 288.616 156.272 290.544 156.272 293.056C156.272 295.568 155.648 297.52 154.4 298.912C153.168 300.304 151.392 301 149.072 301H145.088ZM147.08 299.368H148.832C150.64 299.368 151.984 298.816 152.864 297.712C153.76 296.608 154.208 295.056 154.208 293.056C154.208 291.056 153.76 289.528 152.864 288.472C151.984 287.416 150.64 286.888 148.832 286.888H147.08V299.368ZM159.671 301V299.296H163.583V286.936H159.671V285.256H169.511V286.936H165.599V299.296H169.511V301H159.671ZM173.509 301V285.256H175.957L178.165 291.976L178.933 294.52H179.029L179.773 291.976L182.005 285.256H184.453V301H182.533V293.128C182.533 292.744 182.541 292.304 182.557 291.808C182.589 291.296 182.621 290.784 182.653 290.272C182.701 289.76 182.741 289.264 182.773 288.784C182.805 288.304 182.837 287.896 182.869 287.56H182.797L181.909 290.632L179.653 296.824H178.213L176.005 290.632L175.093 287.56H175.045C175.077 287.896 175.109 288.304 175.141 288.784C175.189 289.264 175.229 289.76 175.261 290.272C175.293 290.784 175.317 291.296 175.333 291.808C175.365 292.304 175.381 292.744 175.381 293.128V301H173.509ZM187.9 301V285.256H190.348L192.556 291.976L193.324 294.52H193.42L194.164 291.976L196.396 285.256H198.844V301H196.924V293.128C196.924 292.744 196.932 292.304 196.948 291.808C196.98 291.296 197.012 290.784 197.044 290.272C197.092 289.76 197.132 289.264 197.164 288.784C197.196 288.304 197.228 287.896 197.26 287.56H197.188L196.3 290.632L194.044 296.824H192.604L190.396 290.632L189.484 287.56H189.436C189.468 287.896 189.5 288.304 189.532 288.784C189.58 289.264 189.62 289.76 189.652 290.272C189.684 290.784 189.708 291.296 189.724 291.808C189.756 292.304 189.772 292.744 189.772 293.128V301H187.9ZM207.763 301.288C207.219 301.288 206.755 301.104 206.371 300.736C206.003 300.368 205.819 299.88 205.819 299.272C205.819 298.664 206.003 298.176 206.371 297.808C206.755 297.424 207.219 297.232 207.763 297.232C208.307 297.232 208.763 297.424 209.131 297.808C209.515 298.176 209.707 298.664 209.707 299.272C209.707 299.88 209.515 300.368 209.131 300.736C208.763 301.104 208.307 301.288 207.763 301.288ZM216.705 301V299.824C218.001 298.672 219.145 297.632 220.137 296.704C221.145 295.776 221.985 294.928 222.657 294.16C223.345 293.376 223.865 292.648 224.217 291.976C224.569 291.304 224.745 290.648 224.745 290.008C224.745 289.128 224.473 288.408 223.929 287.848C223.385 287.288 222.545 287.008 221.409 287.008C220.689 287.008 220.017 287.192 219.393 287.56C218.785 287.912 218.233 288.344 217.737 288.856L216.609 287.728C217.297 287.024 218.033 286.464 218.817 286.048C219.617 285.616 220.561 285.4 221.649 285.4C222.417 285.4 223.105 285.512 223.713 285.736C224.337 285.944 224.865 286.248 225.297 286.648C225.729 287.032 226.057 287.504 226.281 288.064C226.521 288.624 226.641 289.24 226.641 289.912C226.641 290.632 226.465 291.36 226.113 292.096C225.777 292.816 225.297 293.568 224.673 294.352C224.049 295.12 223.305 295.928 222.441 296.776C221.577 297.608 220.625 298.496 219.585 299.44C220.065 299.408 220.545 299.376 221.025 299.344C221.505 299.312 221.977 299.296 222.441 299.296H227.481V301H216.705ZM237.216 301L237.816 296.104H234.648L234.048 301H232.752L233.352 296.104H231.432V294.736H233.52L233.952 291.184H231.912V289.792H234.12L234.672 285.4H235.944L235.416 289.792H238.584L239.136 285.4H240.408L239.88 289.792H241.8V291.184H239.712L239.28 294.736H241.32V296.104H239.112L238.512 301H237.216ZM237.984 294.736L238.416 291.184H235.248L234.816 294.736H237.984ZM246.062 301V299.368H250.478V288.088H247.046V286.816C247.958 286.688 248.718 286.536 249.326 286.36C249.934 286.184 250.486 285.96 250.982 285.688H252.446V299.368H256.454V301H246.062Z" fill="black"/>
<rect x="123" y="327" width="152.851" height="52" fill="#C4C4C4"/>
<path d="M145.088 362V346.256H148.976C151.36 346.256 153.168 346.928 154.4 348.272C155.648 349.616 156.272 351.544 156.272 354.056C156.272 356.568 155.648 358.52 154.4 359.912C153.168 361.304 151.392 362 149.072 362H145.088ZM147.08 360.368H148.832C150.64 360.368 151.984 359.816 152.864 358.712C153.76 357.608 154.208 356.056 154.208 354.056C154.208 352.056 153.76 350.528 152.864 349.472C151.984 348.416 150.64 347.888 148.832 347.888H147.08V360.368ZM159.671 362V360.296H163.583V347.936H159.671V346.256H169.511V347.936H165.599V360.296H169.511V362H159.671ZM173.509 362V346.256H175.957L178.165 352.976L178.933 355.52H179.029L179.773 352.976L182.005 346.256H184.453V362H182.533V354.128C182.533 353.744 182.541 353.304 182.557 352.808C182.589 352.296 182.621 351.784 182.653 351.272C182.701 350.76 182.741 350.264 182.773 349.784C182.805 349.304 182.837 348.896 182.869 348.56H182.797L181.909 351.632L179.653 357.824H178.213L176.005 351.632L175.093 348.56H175.045C175.077 348.896 175.109 349.304 175.141 349.784C175.189 350.264 175.229 350.76 175.261 351.272C175.293 351.784 175.317 352.296 175.333 352.808C175.365 353.304 175.381 353.744 175.381 354.128V362H173.509ZM187.9 362V346.256H190.348L192.556 352.976L193.324 355.52H193.42L194.164 352.976L196.396 346.256H198.844V362H196.924V354.128C196.924 353.744 196.932 353.304 196.948 352.808C196.98 352.296 197.012 351.784 197.044 351.272C197.092 350.76 197.132 350.264 197.164 349.784C197.196 349.304 197.228 348.896 197.26 348.56H197.188L196.3 351.632L194.044 357.824H192.604L190.396 351.632L189.484 348.56H189.436C189.468 348.896 189.5 349.304 189.532 349.784C189.58 350.264 189.62 350.76 189.652 351.272C189.684 351.784 189.708 352.296 189.724 352.808C189.756 353.304 189.772 353.744 189.772 354.128V362H187.9ZM207.763 362.288C207.219 362.288 206.755 362.104 206.371 361.736C206.003 361.368 205.819 360.88 205.819 360.272C205.819 359.664 206.003 359.176 206.371 358.808C206.755 358.424 207.219 358.232 207.763 358.232C208.307 358.232 208.763 358.424 209.131 358.808C209.515 359.176 209.707 359.664 209.707 360.272C209.707 360.88 209.515 361.368 209.131 361.736C208.763 362.104 208.307 362.288 207.763 362.288ZM216.705 362V360.824C218.001 359.672 219.145 358.632 220.137 357.704C221.145 356.776 221.985 355.928 222.657 355.16C223.345 354.376 223.865 353.648 224.217 352.976C224.569 352.304 224.745 351.648 224.745 351.008C224.745 350.128 224.473 349.408 223.929 348.848C223.385 348.288 222.545 348.008 221.409 348.008C220.689 348.008 220.017 348.192 219.393 348.56C218.785 348.912 218.233 349.344 217.737 349.856L216.609 348.728C217.297 348.024 218.033 347.464 218.817 347.048C219.617 346.616 220.561 346.4 221.649 346.4C222.417 346.4 223.105 346.512 223.713 346.736C224.337 346.944 224.865 347.248 225.297 347.648C225.729 348.032 226.057 348.504 226.281 349.064C226.521 349.624 226.641 350.24 226.641 350.912C226.641 351.632 226.465 352.36 226.113 353.096C225.777 353.816 225.297 354.568 224.673 355.352C224.049 356.12 223.305 356.928 222.441 357.776C221.577 358.608 220.625 359.496 219.585 360.44C220.065 360.408 220.545 360.376 221.025 360.344C221.505 360.312 221.977 360.296 222.441 360.296H227.481V362H216.705ZM237.216 362L237.816 357.104H234.648L234.048 362H232.752L233.352 357.104H231.432V355.736H233.52L233.952 352.184H231.912V350.792H234.12L234.672 346.4H235.944L235.416 350.792H238.584L239.136 346.4H240.408L239.88 350.792H241.8V352.184H239.712L239.28 355.736H241.32V357.104H239.112L238.512 362H237.216ZM237.984 355.736L238.416 352.184H235.248L234.816 355.736H237.984ZM245.486 362V360.824C246.782 359.672 247.926 358.632 248.918 357.704C249.926 356.776 250.766 355.928 251.438 355.16C252.126 354.376 252.646 353.648 252.998 352.976C253.35 352.304 253.526 351.648 253.526 351.008C253.526 350.128 253.254 349.408 252.71 348.848C252.166 348.288 251.326 348.008 250.19 348.008C249.47 348.008 248.798 348.192 248.174 348.56C247.566 348.912 247.014 349.344 246.518 349.856L245.39 348.728C246.078 348.024 246.814 347.464 247.598 347.048C248.398 346.616 249.342 346.4 250.43 346.4C251.198 346.4 251.886 346.512 252.494 346.736C253.118 346.944 253.646 347.248 254.078 347.648C254.51 348.032 254.838 348.504 255.062 349.064C255.302 349.624 255.422 350.24 255.422 350.912C255.422 351.632 255.246 352.36 254.894 353.096C254.558 353.816 254.078 354.568 253.454 355.352C252.83 356.12 252.086 356.928 251.222 357.776C250.358 358.608 249.406 359.496 248.366 360.44C248.846 360.408 249.326 360.376 249.806 360.344C250.286 360.312 250.758 360.296 251.222 360.296H256.262V362H245.486Z" fill="black"/>
<rect x="123" y="389" width="152.851" height="52" fill="#C4C4C4"/>
<path d="M145.448 424V408.256H150.2C151.064 408.256 151.856 408.336 152.576 408.496C153.296 408.656 153.912 408.92 154.424 409.288C154.936 409.64 155.328 410.112 155.6 410.704C155.888 411.296 156.032 412.024 156.032 412.888C156.032 413.72 155.888 414.44 155.6 415.048C155.328 415.656 154.928 416.16 154.4 416.56C153.888 416.96 153.272 417.264 152.552 417.472C151.848 417.664 151.064 417.76 150.2 417.76H147.44V424H145.448ZM147.44 416.128H149.96C151.352 416.128 152.376 415.872 153.032 415.36C153.688 414.832 154.016 414.008 154.016 412.888C154.016 411.752 153.68 410.968 153.008 410.536C152.336 410.088 151.32 409.864 149.96 409.864H147.44V416.128ZM165.815 424.288C164.839 424.288 163.935 424.104 163.103 423.736C162.271 423.368 161.543 422.84 160.919 422.152C160.311 421.448 159.831 420.592 159.479 419.584C159.127 418.56 158.951 417.408 158.951 416.128C158.951 414.864 159.127 413.728 159.479 412.72C159.831 411.712 160.319 410.856 160.943 410.152C161.567 409.448 162.311 408.912 163.175 408.544C164.039 408.16 164.983 407.968 166.007 407.968C166.951 407.968 167.783 408.16 168.503 408.544C169.239 408.928 169.839 409.376 170.303 409.888L169.175 411.16C168.759 410.728 168.295 410.384 167.783 410.128C167.271 409.856 166.679 409.72 166.007 409.72C165.255 409.72 164.567 409.872 163.943 410.176C163.335 410.464 162.815 410.888 162.383 411.448C161.951 411.992 161.615 412.656 161.375 413.44C161.135 414.224 161.015 415.104 161.015 416.08C161.015 417.072 161.135 417.968 161.375 418.768C161.615 419.552 161.951 420.224 162.383 420.784C162.815 421.344 163.335 421.776 163.943 422.08C164.567 422.384 165.255 422.536 166.007 422.536C166.727 422.536 167.367 422.384 167.927 422.08C168.503 421.776 169.047 421.344 169.559 420.784L170.687 422.008C170.063 422.728 169.359 423.288 168.575 423.688C167.791 424.088 166.871 424.288 165.815 424.288ZM174.061 424V422.296H177.973V409.936H174.061V408.256H183.901V409.936H179.989V422.296H183.901V424H174.061ZM188.908 424V408.256H198.652V409.936H190.924V414.88H197.452V416.584H190.924V422.296H198.892V424H188.908ZM201.859 424L206.562 415.864L202.171 408.256H204.379L206.587 412.288C206.795 412.656 206.995 413.016 207.187 413.368C207.379 413.704 207.603 414.104 207.859 414.568H207.955C208.179 414.104 208.371 413.704 208.531 413.368C208.707 413.016 208.891 412.656 209.083 412.288L211.243 408.256H213.355L208.963 415.96L213.667 424H211.459L209.083 419.752C208.859 419.368 208.635 418.976 208.411 418.576C208.203 418.16 207.963 417.712 207.691 417.232H207.595C207.371 417.712 207.155 418.16 206.947 418.576C206.739 418.976 206.531 419.368 206.323 419.752L203.971 424H201.859ZM223.785 424V419.776H215.889V418.456L223.545 408.688H225.657V418.192H228.033V419.776H225.657V424H223.785ZM218.073 418.192H223.785V413.44C223.801 413.024 223.817 412.576 223.833 412.096C223.849 411.6 223.873 411.144 223.905 410.728H223.785C223.545 411.096 223.289 411.472 223.017 411.856C222.745 412.224 222.481 412.592 222.225 412.96L218.073 418.192Z" fill="black"/>
<rect x="123" y="451" width="152.851" height="52" fill="#C4C4C4"/>
<path d="M144.728 486V470.256H147.176L149.384 476.976L150.152 479.52H150.248L150.992 476.976L153.224 470.256H155.672V486H153.752V478.128C153.752 477.744 153.76 477.304 153.776 476.808C153.808 476.296 153.84 475.784 153.872 475.272C153.92 474.76 153.96 474.264 153.992 473.784C154.024 473.304 154.056 472.896 154.088 472.56H154.016L153.128 475.632L150.872 481.824H149.432L147.224 475.632L146.312 472.56H146.264C146.296 472.896 146.328 473.304 146.36 473.784C146.408 474.264 146.448 474.76 146.48 475.272C146.512 475.784 146.536 476.296 146.552 476.808C146.584 477.304 146.6 477.744 146.6 478.128V486H144.728ZM164.591 486.288C164.047 486.288 163.583 486.104 163.199 485.736C162.831 485.368 162.647 484.88 162.647 484.272C162.647 483.664 162.831 483.176 163.199 482.808C163.583 482.424 164.047 482.232 164.591 482.232C165.135 482.232 165.591 482.424 165.959 482.808C166.343 483.176 166.535 483.664 166.535 484.272C166.535 484.88 166.343 485.368 165.959 485.736C165.591 486.104 165.135 486.288 164.591 486.288ZM173.533 486V484.824C174.829 483.672 175.973 482.632 176.965 481.704C177.973 480.776 178.813 479.928 179.485 479.16C180.173 478.376 180.693 477.648 181.045 476.976C181.397 476.304 181.573 475.648 181.573 475.008C181.573 474.128 181.301 473.408 180.757 472.848C180.213 472.288 179.373 472.008 178.237 472.008C177.517 472.008 176.845 472.192 176.221 472.56C175.613 472.912 175.061 473.344 174.565 473.856L173.437 472.728C174.125 472.024 174.861 471.464 175.645 471.048C176.445 470.616 177.389 470.4 178.477 470.4C179.245 470.4 179.933 470.512 180.541 470.736C181.165 470.944 181.693 471.248 182.125 471.648C182.557 472.032 182.885 472.504 183.109 473.064C183.349 473.624 183.469 474.24 183.469 474.912C183.469 475.632 183.293 476.36 182.941 477.096C182.605 477.816 182.125 478.568 181.501 479.352C180.877 480.12 180.133 480.928 179.269 481.776C178.405 482.608 177.453 483.496 176.413 484.44C176.893 484.408 177.373 484.376 177.853 484.344C178.333 484.312 178.805 484.296 179.269 484.296H184.309V486H173.533ZM194.044 486L194.644 481.104H191.476L190.876 486H189.58L190.18 481.104H188.26V479.736H190.348L190.78 476.184H188.74V474.792H190.948L191.5 470.4H192.772L192.244 474.792H195.412L195.964 470.4H197.236L196.708 474.792H198.628V476.184H196.54L196.108 479.736H198.148V481.104H195.94L195.34 486H194.044ZM194.812 479.736L195.244 476.184H192.076L191.644 479.736H194.812ZM202.315 486V484.824C203.611 483.672 204.755 482.632 205.747 481.704C206.755 480.776 207.595 479.928 208.267 479.16C208.955 478.376 209.475 477.648 209.827 476.976C210.179 476.304 210.355 475.648 210.355 475.008C210.355 474.128 210.083 473.408 209.539 472.848C208.995 472.288 208.155 472.008 207.019 472.008C206.299 472.008 205.627 472.192 205.003 472.56C204.395 472.912 203.843 473.344 203.347 473.856L202.219 472.728C202.907 472.024 203.643 471.464 204.427 471.048C205.227 470.616 206.171 470.4 207.259 470.4C208.027 470.4 208.715 470.512 209.323 470.736C209.947 470.944 210.475 471.248 210.907 471.648C211.339 472.032 211.667 472.504 211.891 473.064C212.131 473.624 212.251 474.24 212.251 474.912C212.251 475.632 212.075 476.36 211.723 477.096C211.387 477.816 210.907 478.568 210.283 479.352C209.659 480.12 208.915 480.928 208.051 481.776C207.187 482.608 206.235 483.496 205.195 484.44C205.675 484.408 206.155 484.376 206.635 484.344C207.115 484.312 207.587 484.296 208.051 484.296H213.091V486H202.315Z" fill="black"/>
<rect x="123" y="513" width="152.851" height="52" fill="#C4C4C4"/>
<path d="M144.728 548V532.256H147.176L149.384 538.976L150.152 541.52H150.248L150.992 538.976L153.224 532.256H155.672V548H153.752V540.128C153.752 539.744 153.76 539.304 153.776 538.808C153.808 538.296 153.84 537.784 153.872 537.272C153.92 536.76 153.96 536.264 153.992 535.784C154.024 535.304 154.056 534.896 154.088 534.56H154.016L153.128 537.632L150.872 543.824H149.432L147.224 537.632L146.312 534.56H146.264C146.296 534.896 146.328 535.304 146.36 535.784C146.408 536.264 146.448 536.76 146.48 537.272C146.512 537.784 146.536 538.296 146.552 538.808C146.584 539.304 146.6 539.744 146.6 540.128V548H144.728ZM164.591 548.288C164.047 548.288 163.583 548.104 163.199 547.736C162.831 547.368 162.647 546.88 162.647 546.272C162.647 545.664 162.831 545.176 163.199 544.808C163.583 544.424 164.047 544.232 164.591 544.232C165.135 544.232 165.591 544.424 165.959 544.808C166.343 545.176 166.535 545.664 166.535 546.272C166.535 546.88 166.343 547.368 165.959 547.736C165.591 548.104 165.135 548.288 164.591 548.288ZM173.533 548V546.824C174.829 545.672 175.973 544.632 176.965 543.704C177.973 542.776 178.813 541.928 179.485 541.16C180.173 540.376 180.693 539.648 181.045 538.976C181.397 538.304 181.573 537.648 181.573 537.008C181.573 536.128 181.301 535.408 180.757 534.848C180.213 534.288 179.373 534.008 178.237 534.008C177.517 534.008 176.845 534.192 176.221 534.56C175.613 534.912 175.061 535.344 174.565 535.856L173.437 534.728C174.125 534.024 174.861 533.464 175.645 533.048C176.445 532.616 177.389 532.4 178.477 532.4C179.245 532.4 179.933 532.512 180.541 532.736C181.165 532.944 181.693 533.248 182.125 533.648C182.557 534.032 182.885 534.504 183.109 535.064C183.349 535.624 183.469 536.24 183.469 536.912C183.469 537.632 183.293 538.36 182.941 539.096C182.605 539.816 182.125 540.568 181.501 541.352C180.877 542.12 180.133 542.928 179.269 543.776C178.405 544.608 177.453 545.496 176.413 546.44C176.893 546.408 177.373 546.376 177.853 546.344C178.333 546.312 178.805 546.296 179.269 546.296H184.309V548H173.533ZM194.044 548L194.644 543.104H191.476L190.876 548H189.58L190.18 543.104H188.26V541.736H190.348L190.78 538.184H188.74V536.792H190.948L191.5 532.4H192.772L192.244 536.792H195.412L195.964 532.4H197.236L196.708 536.792H198.628V538.184H196.54L196.108 541.736H198.148V543.104H195.94L195.34 548H194.044ZM194.812 541.736L195.244 538.184H192.076L191.644 541.736H194.812ZM202.891 548V546.368H207.307V535.088H203.875V533.816C204.787 533.688 205.547 533.536 206.155 533.36C206.763 533.184 207.315 532.96 207.811 532.688H209.275V546.368H213.283V548H202.891Z" fill="black"/>
<path d="M0 17H276V69H0V17Z" fill="#C4C4C4"/>
<path d="M30.448 50V34.256H35.2C36.064 34.256 36.856 34.336 37.576 34.496C38.296 34.656 38.912 34.92 39.424 35.288C39.936 35.64 40.328 36.112 40.6 36.704C40.888 37.296 41.032 38.024 41.032 38.888C41.032 39.72 40.888 40.44 40.6 41.048C40.328 41.656 39.928 42.16 39.4 42.56C38.888 42.96 38.272 43.264 37.552 43.472C36.848 43.664 36.064 43.76 35.2 43.76H32.44V50H30.448ZM32.44 42.128H34.96C36.352 42.128 37.376 41.872 38.032 41.36C38.688 40.832 39.016 40.008 39.016 38.888C39.016 37.752 38.68 36.968 38.008 36.536C37.336 36.088 36.32 35.864 34.96 35.864H32.44V42.128ZM50.8146 50.288C49.8386 50.288 48.9346 50.104 48.1026 49.736C47.2706 49.368 46.5426 48.84 45.9186 48.152C45.3106 47.448 44.8306 46.592 44.4786 45.584C44.1266 44.56 43.9506 43.408 43.9506 42.128C43.9506 40.864 44.1266 39.728 44.4786 38.72C44.8306 37.712 45.3186 36.856 45.9426 36.152C46.5666 35.448 47.3106 34.912 48.1746 34.544C49.0386 34.16 49.9826 33.968 51.0066 33.968C51.9506 33.968 52.7826 34.16 53.5026 34.544C54.2386 34.928 54.8386 35.376 55.3026 35.888L54.1746 37.16C53.7586 36.728 53.2946 36.384 52.7826 36.128C52.2706 35.856 51.6786 35.72 51.0066 35.72C50.2546 35.72 49.5666 35.872 48.9426 36.176C48.3346 36.464 47.8146 36.888 47.3826 37.448C46.9506 37.992 46.6146 38.656 46.3746 39.44C46.1346 40.224 46.0146 41.104 46.0146 42.08C46.0146 43.072 46.1346 43.968 46.3746 44.768C46.6146 45.552 46.9506 46.224 47.3826 46.784C47.8146 47.344 48.3346 47.776 48.9426 48.08C49.5666 48.384 50.2546 48.536 51.0066 48.536C51.7266 48.536 52.3666 48.384 52.9266 48.08C53.5026 47.776 54.0466 47.344 54.5586 46.784L55.6866 48.008C55.0626 48.728 54.3586 49.288 53.5746 49.688C52.7906 50.088 51.8706 50.288 50.8146 50.288ZM59.0613 50V48.296H62.9733V35.936H59.0613V34.256H68.9012V35.936H64.9893V48.296H68.9012V50H59.0613ZM73.9079 50V34.256H83.6519V35.936H75.9239V40.88H82.4519V42.584H75.9239V48.296H83.8919V50H73.9079ZM86.8585 50L91.5625 41.864L87.1705 34.256H89.3785L91.5865 38.288C91.7945 38.656 91.9945 39.016 92.1865 39.368C92.3785 39.704 92.6025 40.104 92.8585 40.568H92.9545C93.1785 40.104 93.3705 39.704 93.5305 39.368C93.7065 39.016 93.8905 38.656 94.0825 38.288L96.2425 34.256H98.3545L93.9625 41.96L98.6665 50H96.4585L94.0825 45.752C93.8585 45.368 93.6345 44.976 93.4105 44.576C93.2025 44.16 92.9625 43.712 92.6905 43.232H92.5945C92.3705 43.712 92.1545 44.16 91.9465 44.576C91.7385 44.976 91.5305 45.368 91.3225 45.752L88.9705 50H86.8585ZM102.281 50V48.368H106.697V37.088H103.265V35.816C104.177 35.688 104.937 35.536 105.545 35.36C106.153 35.184 106.705 34.96 107.201 34.688H108.665V48.368H112.673V50H102.281ZM122.048 50.288C121.216 50.288 120.44 50.136 119.72 49.832C119.016 49.528 118.4 49.072 117.872 48.464C117.344 47.84 116.928 47.072 116.624 46.16C116.336 45.232 116.192 44.152 116.192 42.92C116.192 41.384 116.368 40.08 116.72 39.008C117.072 37.92 117.544 37.04 118.136 36.368C118.728 35.68 119.408 35.184 120.176 34.88C120.96 34.56 121.768 34.4 122.6 34.4C123.544 34.4 124.36 34.56 125.048 34.88C125.752 35.184 126.36 35.568 126.872 36.032L125.768 37.256C125.368 36.888 124.904 36.6 124.376 36.392C123.848 36.168 123.296 36.056 122.72 36.056C122.112 36.056 121.528 36.168 120.968 36.392C120.408 36.616 119.912 36.984 119.48 37.496C119.064 38.008 118.72 38.688 118.448 39.536C118.192 40.368 118.056 41.4 118.04 42.632C118.664 42.024 119.352 41.544 120.104 41.192C120.856 40.824 121.616 40.64 122.384 40.64C123.088 40.64 123.728 40.744 124.304 40.952C124.896 41.144 125.4 41.44 125.816 41.84C126.248 42.224 126.576 42.712 126.8 43.304C127.04 43.896 127.16 44.584 127.16 45.368C127.16 46.104 127.016 46.776 126.728 47.384C126.456 47.976 126.088 48.488 125.624 48.92C125.16 49.352 124.616 49.688 123.992 49.928C123.384 50.168 122.736 50.288 122.048 50.288ZM122.048 48.728C122.496 48.728 122.92 48.648 123.32 48.488C123.72 48.328 124.064 48.104 124.352 47.816C124.64 47.512 124.864 47.16 125.024 46.76C125.2 46.344 125.288 45.88 125.288 45.368C125.288 44.312 125.008 43.512 124.448 42.968C123.888 42.408 123.08 42.128 122.024 42.128C121.416 42.128 120.76 42.288 120.056 42.608C119.368 42.928 118.72 43.456 118.112 44.192C118.256 45.68 118.664 46.808 119.336 47.576C120.024 48.344 120.928 48.728 122.048 48.728ZM131.11 53.84L138.982 32.96H140.758L132.886 53.84H131.11ZM144.421 50L149.125 41.864L144.733 34.256H146.941L149.149 38.288C149.357 38.656 149.557 39.016 149.749 39.368C149.941 39.704 150.165 40.104 150.421 40.568H150.517C150.741 40.104 150.933 39.704 151.093 39.368C151.269 39.016 151.453 38.656 151.645 38.288L153.805 34.256H155.917L151.525 41.96L156.229 50H154.021L151.645 45.752C151.421 45.368 151.197 44.976 150.973 44.576C150.765 44.16 150.525 43.712 150.253 43.232H150.157C149.933 43.712 149.717 44.16 149.509 44.576C149.301 44.976 149.093 45.368 148.885 45.752L146.533 50H144.421ZM164.764 50.288C163.9 50.288 163.116 50.184 162.412 49.976C161.724 49.768 161.14 49.48 160.66 49.112C160.18 48.728 159.804 48.28 159.532 47.768C159.276 47.256 159.148 46.696 159.148 46.088C159.148 45.56 159.244 45.088 159.436 44.672C159.628 44.256 159.876 43.88 160.18 43.544C160.484 43.208 160.828 42.92 161.212 42.68C161.612 42.424 162.02 42.2 162.436 42.008V41.912C161.796 41.512 161.244 41.024 160.78 40.448C160.332 39.856 160.108 39.152 160.108 38.336C160.108 37.744 160.22 37.208 160.444 36.728C160.684 36.248 161.012 35.84 161.428 35.504C161.86 35.152 162.364 34.88 162.94 34.688C163.516 34.496 164.148 34.4 164.836 34.4C165.588 34.4 166.252 34.504 166.828 34.712C167.42 34.904 167.916 35.184 168.316 35.552C168.732 35.904 169.044 36.336 169.252 36.848C169.476 37.344 169.588 37.888 169.588 38.48C169.588 39.2 169.356 39.88 168.892 40.52C168.444 41.144 167.9 41.68 167.26 42.128V42.224C167.676 42.432 168.068 42.656 168.436 42.896C168.804 43.136 169.124 43.408 169.396 43.712C169.668 44.016 169.876 44.376 170.02 44.792C170.18 45.192 170.26 45.664 170.26 46.208C170.26 46.784 170.132 47.32 169.876 47.816C169.636 48.312 169.284 48.744 168.82 49.112C168.356 49.48 167.78 49.768 167.092 49.976C166.42 50.184 165.644 50.288 164.764 50.288ZM165.964 41.648C167.244 40.72 167.884 39.696 167.884 38.576C167.884 37.808 167.62 37.168 167.092 36.656C166.564 36.128 165.796 35.864 164.788 35.864C163.924 35.864 163.228 36.088 162.7 36.536C162.172 36.984 161.908 37.584 161.908 38.336C161.908 38.8 162.012 39.2 162.22 39.536C162.428 39.856 162.716 40.144 163.084 40.4C163.452 40.656 163.876 40.888 164.356 41.096C164.852 41.288 165.388 41.472 165.964 41.648ZM164.812 48.824C165.964 48.824 166.844 48.576 167.452 48.08C168.06 47.584 168.364 46.936 168.364 46.136C168.364 45.608 168.236 45.168 167.98 44.816C167.74 44.448 167.404 44.136 166.972 43.88C166.54 43.624 166.028 43.4 165.436 43.208C164.86 43 164.236 42.784 163.564 42.56C162.812 42.976 162.188 43.448 161.692 43.976C161.196 44.488 160.948 45.128 160.948 45.896C160.948 46.76 161.292 47.464 161.98 48.008C162.684 48.552 163.628 48.824 164.812 48.824ZM179.778 50L180.378 45.104H177.21L176.61 50H175.314L175.914 45.104H173.994V43.736H176.082L176.514 40.184H174.474V38.792H176.682L177.234 34.4H178.506L177.978 38.792H181.146L181.698 34.4H182.97L182.442 38.792H184.362V40.184H182.274L181.842 43.736H183.882V45.104H181.674L181.074 50H179.778ZM180.546 43.736L180.978 40.184H177.81L177.378 43.736H180.546ZM188.625 50V48.368H193.041V37.088H189.609V35.816C190.521 35.688 191.281 35.536 191.889 35.36C192.497 35.184 193.049 34.96 193.545 34.688H195.009V48.368H199.017V50H188.625Z" fill="black"/>
<line x1="276" y1="105.5" x2="489" y2="105.5" stroke="black"/>
<line x1="276" y1="42.5" x2="489" y2="42.5" stroke="black"/>
<line x1="276" y1="166.5" x2="489" y2="166.5" stroke="black"/>
<line x1="276" y1="228.5" x2="489" y2="228.5" stroke="black"/>
<line x1="276" y1="351.5" x2="489" y2="351.5" stroke="black"/>
<line x1="276" y1="476.5" x2="489" y2="476.5" stroke="black"/>
<line x1="275" y1="538.5" x2="488" y2="538.5" stroke="black"/>
<circle cx="384" cy="168" r="25" fill="#C4C4C4"/>
<path d="M383.32 177.288C382.168 177.288 381.104 177.08 380.128 176.664C379.168 176.248 378.328 175.68 377.608 174.96L378.808 173.568C379.4 174.16 380.088 174.64 380.872 175.008C381.656 175.36 382.504 175.536 383.416 175.536C384.504 175.536 385.344 175.304 385.936 174.84C386.544 174.376 386.848 173.776 386.848 173.04C386.848 172.624 386.776 172.272 386.632 171.984C386.488 171.696 386.288 171.448 386.032 171.24C385.776 171.032 385.472 170.848 385.12 170.688C384.784 170.528 384.416 170.36 384.016 170.184L381.76 169.2C381.36 169.04 380.96 168.848 380.56 168.624C380.16 168.4 379.792 168.128 379.456 167.808C379.136 167.488 378.872 167.112 378.664 166.68C378.456 166.232 378.352 165.72 378.352 165.144C378.352 164.552 378.48 164 378.736 163.488C378.992 162.976 379.344 162.536 379.792 162.168C380.256 161.784 380.8 161.488 381.424 161.28C382.064 161.072 382.76 160.968 383.512 160.968C384.504 160.968 385.416 161.152 386.248 161.52C387.08 161.872 387.784 162.336 388.36 162.912L387.304 164.208C386.792 163.744 386.224 163.384 385.6 163.128C384.976 162.856 384.256 162.72 383.44 162.72C382.528 162.72 381.792 162.928 381.232 163.344C380.672 163.744 380.392 164.304 380.392 165.024C380.392 165.408 380.472 165.736 380.632 166.008C380.808 166.264 381.024 166.496 381.28 166.704C381.552 166.896 381.856 167.064 382.192 167.208C382.528 167.352 382.864 167.496 383.2 167.64L385.408 168.6C385.888 168.792 386.336 169.016 386.752 169.272C387.184 169.512 387.552 169.8 387.856 170.136C388.176 170.456 388.424 170.84 388.6 171.288C388.792 171.72 388.888 172.224 388.888 172.8C388.888 173.424 388.76 174.008 388.504 174.552C388.248 175.096 387.88 175.576 387.4 175.992C386.92 176.392 386.336 176.712 385.648 176.952C384.96 177.176 384.184 177.288 383.32 177.288Z" fill="black"/>
<line x1="363.815" y1="153.465" x2="275.815" y2="118.465" stroke="black"/>
<line x1="275.802" y1="152.541" x2="363.802" y2="114.541" stroke="black"/>
<circle cx="383" cy="106" r="25" fill="#C4C4C4"/>
<path d="M382.32 115.288C381.168 115.288 380.104 115.08 379.128 114.664C378.168 114.248 377.328 113.68 376.608 112.96L377.808 111.568C378.4 112.16 379.088 112.64 379.872 113.008C380.656 113.36 381.504 113.536 382.416 113.536C383.504 113.536 384.344 113.304 384.936 112.84C385.544 112.376 385.848 111.776 385.848 111.04C385.848 110.624 385.776 110.272 385.632 109.984C385.488 109.696 385.288 109.448 385.032 109.24C384.776 109.032 384.472 108.848 384.12 108.688C383.784 108.528 383.416 108.36 383.016 108.184L380.76 107.2C380.36 107.04 379.96 106.848 379.56 106.624C379.16 106.4 378.792 106.128 378.456 105.808C378.136 105.488 377.872 105.112 377.664 104.68C377.456 104.232 377.352 103.72 377.352 103.144C377.352 102.552 377.48 102 377.736 101.488C377.992 100.976 378.344 100.536 378.792 100.168C379.256 99.784 379.8 99.488 380.424 99.28C381.064 99.072 381.76 98.968 382.512 98.968C383.504 98.968 384.416 99.152 385.248 99.52C386.08 99.872 386.784 100.336 387.36 100.912L386.304 102.208C385.792 101.744 385.224 101.384 384.6 101.128C383.976 100.856 383.256 100.72 382.44 100.72C381.528 100.72 380.792 100.928 380.232 101.344C379.672 101.744 379.392 102.304 379.392 103.024C379.392 103.408 379.472 103.736 379.632 104.008C379.808 104.264 380.024 104.496 380.28 104.704C380.552 104.896 380.856 105.064 381.192 105.208C381.528 105.352 381.864 105.496 382.2 105.64L384.408 106.6C384.888 106.792 385.336 107.016 385.752 107.272C386.184 107.512 386.552 107.8 386.856 108.136C387.176 108.456 387.424 108.84 387.6 109.288C387.792 109.72 387.888 110.224 387.888 110.8C387.888 111.424 387.76 112.008 387.504 112.552C387.248 113.096 386.88 113.576 386.4 113.992C385.92 114.392 385.336 114.712 384.648 114.952C383.96 115.176 383.184 115.288 382.32 115.288Z" fill="black"/>
<line x1="489" y1="291.5" x2="276" y2="291.505" stroke="black"/>
<path d="M521.536 51L525.976 44.952L521.872 39.336H524.056L525.904 41.904C526.112 42.224 526.328 42.552 526.552 42.888C526.792 43.224 527.032 43.552 527.272 43.872H527.368C527.592 43.552 527.816 43.216 528.04 42.864C528.264 42.512 528.48 42.176 528.688 41.856L530.44 39.336H532.528L528.376 45.12L532.84 51H530.68L528.64 48.312C528.4 47.976 528.144 47.624 527.872 47.256C527.616 46.888 527.36 46.536 527.104 46.2H527.008C526.768 46.552 526.528 46.904 526.288 47.256C526.048 47.592 525.808 47.944 525.568 48.312L523.648 51H521.536ZM536.719 51V49.368H541.135V38.088H537.703V36.816C538.615 36.688 539.375 36.536 539.983 36.36C540.591 36.184 541.143 35.96 541.639 35.688H543.103V49.368H547.111V51H536.719ZM556.485 51.288C555.653 51.288 554.877 51.136 554.157 50.832C553.453 50.528 552.837 50.072 552.309 49.464C551.781 48.84 551.365 48.072 551.061 47.16C550.773 46.232 550.629 45.152 550.629 43.92C550.629 42.384 550.805 41.08 551.157 40.008C551.509 38.92 551.981 38.04 552.573 37.368C553.165 36.68 553.845 36.184 554.613 35.88C555.397 35.56 556.205 35.4 557.037 35.4C557.981 35.4 558.797 35.56 559.485 35.88C560.189 36.184 560.797 36.568 561.309 37.032L560.205 38.256C559.805 37.888 559.341 37.6 558.813 37.392C558.285 37.168 557.733 37.056 557.157 37.056C556.549 37.056 555.965 37.168 555.405 37.392C554.845 37.616 554.349 37.984 553.917 38.496C553.501 39.008 553.157 39.688 552.885 40.536C552.629 41.368 552.493 42.4 552.477 43.632C553.101 43.024 553.789 42.544 554.541 42.192C555.293 41.824 556.053 41.64 556.821 41.64C557.525 41.64 558.165 41.744 558.741 41.952C559.333 42.144 559.837 42.44 560.253 42.84C560.685 43.224 561.013 43.712 561.237 44.304C561.477 44.896 561.597 45.584 561.597 46.368C561.597 47.104 561.453 47.776 561.165 48.384C560.893 48.976 560.525 49.488 560.061 49.92C559.597 50.352 559.053 50.688 558.429 50.928C557.821 51.168 557.173 51.288 556.485 51.288ZM556.485 49.728C556.933 49.728 557.357 49.648 557.757 49.488C558.157 49.328 558.501 49.104 558.789 48.816C559.077 48.512 559.301 48.16 559.461 47.76C559.637 47.344 559.725 46.88 559.725 46.368C559.725 45.312 559.445 44.512 558.885 43.968C558.325 43.408 557.517 43.128 556.461 43.128C555.853 43.128 555.197 43.288 554.493 43.608C553.805 43.928 553.157 44.456 552.549 45.192C552.693 46.68 553.101 47.808 553.773 48.576C554.461 49.344 555.365 49.728 556.485 49.728Z" fill="black"/>
<path d="M521.536 115L525.976 108.952L521.872 103.336H524.056L525.904 105.904C526.112 106.224 526.328 106.552 526.552 106.888C526.792 107.224 527.032 107.552 527.272 107.872H527.368C527.592 107.552 527.816 107.216 528.04 106.864C528.264 106.512 528.48 106.176 528.688 105.856L530.44 103.336H532.528L528.376 109.12L532.84 115H530.68L528.64 112.312C528.4 111.976 528.144 111.624 527.872 111.256C527.616 110.888 527.36 110.536 527.104 110.2H527.008C526.768 110.552 526.528 110.904 526.288 111.256C526.048 111.592 525.808 111.944 525.568 112.312L523.648 115H521.536ZM541.639 115.288C540.775 115.288 539.991 115.184 539.287 114.976C538.599 114.768 538.015 114.48 537.535 114.112C537.055 113.728 536.679 113.28 536.407 112.768C536.151 112.256 536.023 111.696 536.023 111.088C536.023 110.56 536.119 110.088 536.311 109.672C536.503 109.256 536.751 108.88 537.055 108.544C537.359 108.208 537.703 107.92 538.087 107.68C538.487 107.424 538.895 107.2 539.311 107.008V106.912C538.671 106.512 538.119 106.024 537.655 105.448C537.207 104.856 536.983 104.152 536.983 103.336C536.983 102.744 537.095 102.208 537.319 101.728C537.559 101.248 537.887 100.84 538.303 100.504C538.735 100.152 539.239 99.88 539.815 99.688C540.391 99.496 541.023 99.4 541.711 99.4C542.463 99.4 543.127 99.504 543.703 99.712C544.295 99.904 544.791 100.184 545.191 100.552C545.607 100.904 545.919 101.336 546.127 101.848C546.351 102.344 546.463 102.888 546.463 103.48C546.463 104.2 546.231 104.88 545.767 105.52C545.319 106.144 544.775 106.68 544.135 107.128V107.224C544.551 107.432 544.943 107.656 545.311 107.896C545.679 108.136 545.999 108.408 546.271 108.712C546.543 109.016 546.751 109.376 546.895 109.792C547.055 110.192 547.135 110.664 547.135 111.208C547.135 111.784 547.007 112.32 546.751 112.816C546.511 113.312 546.159 113.744 545.695 114.112C545.231 114.48 544.655 114.768 543.967 114.976C543.295 115.184 542.519 115.288 541.639 115.288ZM542.839 106.648C544.119 105.72 544.759 104.696 544.759 103.576C544.759 102.808 544.495 102.168 543.967 101.656C543.439 101.128 542.671 100.864 541.663 100.864C540.799 100.864 540.103 101.088 539.575 101.536C539.047 101.984 538.783 102.584 538.783 103.336C538.783 103.8 538.887 104.2 539.095 104.536C539.303 104.856 539.591 105.144 539.959 105.4C540.327 105.656 540.751 105.888 541.231 106.096C541.727 106.288 542.263 106.472 542.839 106.648ZM541.687 113.824C542.839 113.824 543.719 113.576 544.327 113.08C544.935 112.584 545.239 111.936 545.239 111.136C545.239 110.608 545.111 110.168 544.855 109.816C544.615 109.448 544.279 109.136 543.847 108.88C543.415 108.624 542.903 108.4 542.311 108.208C541.735 108 541.111 107.784 540.439 107.56C539.687 107.976 539.063 108.448 538.567 108.976C538.071 109.488 537.823 110.128 537.823 110.896C537.823 111.76 538.167 112.464 538.855 113.008C539.559 113.552 540.503 113.824 541.687 113.824Z" fill="black"/>
<path d="M521.536 177L525.976 170.952L521.872 165.336H524.056L525.904 167.904C526.112 168.224 526.328 168.552 526.552 168.888C526.792 169.224 527.032 169.552 527.272 169.872H527.368C527.592 169.552 527.816 169.216 528.04 168.864C528.264 168.512 528.48 168.176 528.688 167.856L530.44 165.336H532.528L528.376 171.12L532.84 177H530.68L528.64 174.312C528.4 173.976 528.144 173.624 527.872 173.256C527.616 172.888 527.36 172.536 527.104 172.2H527.008C526.768 172.552 526.528 172.904 526.288 173.256C526.048 173.592 525.808 173.944 525.568 174.312L523.648 177H521.536ZM541.639 177.288C540.775 177.288 539.991 177.184 539.287 176.976C538.599 176.768 538.015 176.48 537.535 176.112C537.055 175.728 536.679 175.28 536.407 174.768C536.151 174.256 536.023 173.696 536.023 173.088C536.023 172.56 536.119 172.088 536.311 171.672C536.503 171.256 536.751 170.88 537.055 170.544C537.359 170.208 537.703 169.92 538.087 169.68C538.487 169.424 538.895 169.2 539.311 169.008V168.912C538.671 168.512 538.119 168.024 537.655 167.448C537.207 166.856 536.983 166.152 536.983 165.336C536.983 164.744 537.095 164.208 537.319 163.728C537.559 163.248 537.887 162.84 538.303 162.504C538.735 162.152 539.239 161.88 539.815 161.688C540.391 161.496 541.023 161.4 541.711 161.4C542.463 161.4 543.127 161.504 543.703 161.712C544.295 161.904 544.791 162.184 545.191 162.552C545.607 162.904 545.919 163.336 546.127 163.848C546.351 164.344 546.463 164.888 546.463 165.48C546.463 166.2 546.231 166.88 545.767 167.52C545.319 168.144 544.775 168.68 544.135 169.128V169.224C544.551 169.432 544.943 169.656 545.311 169.896C545.679 170.136 545.999 170.408 546.271 170.712C546.543 171.016 546.751 171.376 546.895 171.792C547.055 172.192 547.135 172.664 547.135 173.208C547.135 173.784 547.007 174.32 546.751 174.816C546.511 175.312 546.159 175.744 545.695 176.112C545.231 176.48 544.655 176.768 543.967 176.976C543.295 177.184 542.519 177.288 541.639 177.288ZM542.839 168.648C544.119 167.72 544.759 166.696 544.759 165.576C544.759 164.808 544.495 164.168 543.967 163.656C543.439 163.128 542.671 162.864 541.663 162.864C540.799 162.864 540.103 163.088 539.575 163.536C539.047 163.984 538.783 164.584 538.783 165.336C538.783 165.8 538.887 166.2 539.095 166.536C539.303 166.856 539.591 167.144 539.959 167.4C540.327 167.656 540.751 167.888 541.231 168.096C541.727 168.288 542.263 168.472 542.839 168.648ZM541.687 175.824C542.839 175.824 543.719 175.576 544.327 175.08C544.935 174.584 545.239 173.936 545.239 173.136C545.239 172.608 545.111 172.168 544.855 171.816C544.615 171.448 544.279 171.136 543.847 170.88C543.415 170.624 542.903 170.4 542.311 170.208C541.735 170 541.111 169.784 540.439 169.56C539.687 169.976 539.063 170.448 538.567 170.976C538.071 171.488 537.823 172.128 537.823 172.896C537.823 173.76 538.167 174.464 538.855 175.008C539.559 175.552 540.503 175.824 541.687 175.824Z" fill="black"/>
<path d="M521.536 240L525.976 233.952L521.872 228.336H524.056L525.904 230.904C526.112 231.224 526.328 231.552 526.552 231.888C526.792 232.224 527.032 232.552 527.272 232.872H527.368C527.592 232.552 527.816 232.216 528.04 231.864C528.264 231.512 528.48 231.176 528.688 230.856L530.44 228.336H532.528L528.376 234.12L532.84 240H530.68L528.64 237.312C528.4 236.976 528.144 236.624 527.872 236.256C527.616 235.888 527.36 235.536 527.104 235.2H527.008C526.768 235.552 526.528 235.904 526.288 236.256C526.048 236.592 525.808 236.944 525.568 237.312L523.648 240H521.536ZM543.223 240V235.776H535.327V234.456L542.983 224.688H545.095V234.192H547.471V235.776H545.095V240H543.223ZM537.511 234.192H543.223V229.44C543.239 229.024 543.255 228.576 543.271 228.096C543.287 227.6 543.311 227.144 543.343 226.728H543.223C542.983 227.096 542.727 227.472 542.455 227.856C542.183 228.224 541.919 228.592 541.663 228.96L537.511 234.192Z" fill="black"/>
<path d="M521.536 304L525.976 297.952L521.872 292.336H524.056L525.904 294.904C526.112 295.224 526.328 295.552 526.552 295.888C526.792 296.224 527.032 296.552 527.272 296.872H527.368C527.592 296.552 527.816 296.216 528.04 295.864C528.264 295.512 528.48 295.176 528.688 294.856L530.44 292.336H532.528L528.376 298.12L532.84 304H530.68L528.64 301.312C528.4 300.976 528.144 300.624 527.872 300.256C527.616 299.888 527.36 299.536 527.104 299.2H527.008C526.768 299.552 526.528 299.904 526.288 300.256C526.048 300.592 525.808 300.944 525.568 301.312L523.648 304H521.536ZM543.223 304V299.776H535.327V298.456L542.983 288.688H545.095V298.192H547.471V299.776H545.095V304H543.223ZM537.511 298.192H543.223V293.44C543.239 293.024 543.255 292.576 543.271 292.096C543.287 291.6 543.311 291.144 543.343 290.728H543.223C542.983 291.096 542.727 291.472 542.455 291.856C542.183 292.224 541.919 292.592 541.663 292.96L537.511 298.192Z" fill="black"/>
<path d="M521.536 362L525.976 355.952L521.872 350.336H524.056L525.904 352.904C526.112 353.224 526.328 353.552 526.552 353.888C526.792 354.224 527.032 354.552 527.272 354.872H527.368C527.592 354.552 527.816 354.216 528.04 353.864C528.264 353.512 528.48 353.176 528.688 352.856L530.44 350.336H532.528L528.376 356.12L532.84 362H530.68L528.64 359.312C528.4 358.976 528.144 358.624 527.872 358.256C527.616 357.888 527.36 357.536 527.104 357.2H527.008C526.768 357.552 526.528 357.904 526.288 358.256C526.048 358.592 525.808 358.944 525.568 359.312L523.648 362H521.536ZM543.223 362V357.776H535.327V356.456L542.983 346.688H545.095V356.192H547.471V357.776H545.095V362H543.223ZM537.511 356.192H543.223V351.44C543.239 351.024 543.255 350.576 543.271 350.096C543.287 349.6 543.311 349.144 543.343 348.728H543.223C542.983 349.096 542.727 349.472 542.455 349.856C542.183 350.224 541.919 350.592 541.663 350.96L537.511 356.192Z" fill="black"/>
<path d="M521.536 483L525.976 476.952L521.872 471.336H524.056L525.904 473.904C526.112 474.224 526.328 474.552 526.552 474.888C526.792 475.224 527.032 475.552 527.272 475.872H527.368C527.592 475.552 527.816 475.216 528.04 474.864C528.264 474.512 528.48 474.176 528.688 473.856L530.44 471.336H532.528L528.376 477.12L532.84 483H530.68L528.64 480.312C528.4 479.976 528.144 479.624 527.872 479.256C527.616 478.888 527.36 478.536 527.104 478.2H527.008C526.768 478.552 526.528 478.904 526.288 479.256C526.048 479.592 525.808 479.944 525.568 480.312L523.648 483H521.536ZM543.223 483V478.776H535.327V477.456L542.983 467.688H545.095V477.192H547.471V478.776H545.095V483H543.223ZM537.511 477.192H543.223V472.44C543.239 472.024 543.255 471.576 543.271 471.096C543.287 470.6 543.311 470.144 543.343 469.728H543.223C542.983 470.096 542.727 470.472 542.455 470.856C542.183 471.224 541.919 471.592 541.663 471.96L537.511 477.192Z" fill="black"/>
<path d="M521.536 548L525.976 541.952L521.872 536.336H524.056L525.904 538.904C526.112 539.224 526.328 539.552 526.552 539.888C526.792 540.224 527.032 540.552 527.272 540.872H527.368C527.592 540.552 527.816 540.216 528.04 539.864C528.264 539.512 528.48 539.176 528.688 538.856L530.44 536.336H532.528L528.376 542.12L532.84 548H530.68L528.64 545.312C528.4 544.976 528.144 544.624 527.872 544.256C527.616 543.888 527.36 543.536 527.104 543.2H527.008C526.768 543.552 526.528 543.904 526.288 544.256C526.048 544.592 525.808 544.944 525.568 545.312L523.648 548H521.536ZM543.223 548V543.776H535.327V542.456L542.983 532.688H545.095V542.192H547.471V543.776H545.095V548H543.223ZM537.511 542.192H543.223V537.44C543.239 537.024 543.255 536.576 543.271 536.096C543.287 535.6 543.311 535.144 543.343 534.728H543.223C542.983 535.096 542.727 535.472 542.455 535.856C542.183 536.224 541.919 536.592 541.663 536.96L537.511 542.192Z" fill="black"/>
<line x1="369.813" y1="280.464" x2="275.813" y2="242.464" stroke="black"/>
<line x1="369.823" y1="463.468" x2="274.823" y2="427.468" stroke="black"/>
<circle cx="384" cy="292" r="25" fill="#C4C4C4"/>
<path d="M383.32 301.288C382.168 301.288 381.104 301.08 380.128 300.664C379.168 300.248 378.328 299.68 377.608 298.96L378.808 297.568C379.4 298.16 380.088 298.64 380.872 299.008C381.656 299.36 382.504 299.536 383.416 299.536C384.504 299.536 385.344 299.304 385.936 298.84C386.544 298.376 386.848 297.776 386.848 297.04C386.848 296.624 386.776 296.272 386.632 295.984C386.488 295.696 386.288 295.448 386.032 295.24C385.776 295.032 385.472 294.848 385.12 294.688C384.784 294.528 384.416 294.36 384.016 294.184L381.76 293.2C381.36 293.04 380.96 292.848 380.56 292.624C380.16 292.4 379.792 292.128 379.456 291.808C379.136 291.488 378.872 291.112 378.664 290.68C378.456 290.232 378.352 289.72 378.352 289.144C378.352 288.552 378.48 288 378.736 287.488C378.992 286.976 379.344 286.536 379.792 286.168C380.256 285.784 380.8 285.488 381.424 285.28C382.064 285.072 382.76 284.968 383.512 284.968C384.504 284.968 385.416 285.152 386.248 285.52C387.08 285.872 387.784 286.336 388.36 286.912L387.304 288.208C386.792 287.744 386.224 287.384 385.6 287.128C384.976 286.856 384.256 286.72 383.44 286.72C382.528 286.72 381.792 286.928 381.232 287.344C380.672 287.744 380.392 288.304 380.392 289.024C380.392 289.408 380.472 289.736 380.632 290.008C380.808 290.264 381.024 290.496 381.28 290.704C381.552 290.896 381.856 291.064 382.192 291.208C382.528 291.352 382.864 291.496 383.2 291.64L385.408 292.6C385.888 292.792 386.336 293.016 386.752 293.272C387.184 293.512 387.552 293.8 387.856 294.136C388.176 294.456 388.424 294.84 388.6 295.288C388.792 295.72 388.888 296.224 388.888 296.8C388.888 297.424 388.76 298.008 388.504 298.552C388.248 299.096 387.88 299.576 387.4 299.992C386.92 300.392 386.336 300.712 385.648 300.952C384.96 301.176 384.184 301.288 383.32 301.288Z" fill="black"/>
<circle cx="384" cy="478" r="25" fill="#C4C4C4"/>
<path d="M383.32 487.288C382.168 487.288 381.104 487.08 380.128 486.664C379.168 486.248 378.328 485.68 377.608 484.96L378.808 483.568C379.4 484.16 380.088 484.64 380.872 485.008C381.656 485.36 382.504 485.536 383.416 485.536C384.504 485.536 385.344 485.304 385.936 484.84C386.544 484.376 386.848 483.776 386.848 483.04C386.848 482.624 386.776 482.272 386.632 481.984C386.488 481.696 386.288 481.448 386.032 481.24C385.776 481.032 385.472 480.848 385.12 480.688C384.784 480.528 384.416 480.36 384.016 480.184L381.76 479.2C381.36 479.04 380.96 478.848 380.56 478.624C380.16 478.4 379.792 478.128 379.456 477.808C379.136 477.488 378.872 477.112 378.664 476.68C378.456 476.232 378.352 475.72 378.352 475.144C378.352 474.552 378.48 474 378.736 473.488C378.992 472.976 379.344 472.536 379.792 472.168C380.256 471.784 380.8 471.488 381.424 471.28C382.064 471.072 382.76 470.968 383.512 470.968C384.504 470.968 385.416 471.152 386.248 471.52C387.08 471.872 387.784 472.336 388.36 472.912L387.304 474.208C386.792 473.744 386.224 473.384 385.6 473.128C384.976 472.856 384.256 472.72 383.44 472.72C382.528 472.72 381.792 472.928 381.232 473.344C380.672 473.744 380.392 474.304 380.392 475.024C380.392 475.408 380.472 475.736 380.632 476.008C380.808 476.264 381.024 476.496 381.28 476.704C381.552 476.896 381.856 477.064 382.192 477.208C382.528 477.352 382.864 477.496 383.2 477.64L385.408 478.6C385.888 478.792 386.336 479.016 386.752 479.272C387.184 479.512 387.552 479.8 387.856 480.136C388.176 480.456 388.424 480.84 388.6 481.288C388.792 481.72 388.888 482.224 388.888 482.8C388.888 483.424 388.76 484.008 388.504 484.552C388.248 485.096 387.88 485.576 387.4 485.992C386.92 486.392 386.336 486.712 385.648 486.952C384.96 487.176 384.184 487.288 383.32 487.288Z" fill="black"/>
</svg>
